# This file uses centimeters as units for non-parametric coordinates.

mtllib tower lv2.mtl
g default
v 2.525585 -10.000001 -0.813744
v 1.618035 -10.000000 -1.175571
v 1.560897 -10.000001 -2.130412
v -1.618034 -10.000000 -1.175571
v -2.525585 -10.000001 -0.813744
v -2.000000 -10.000000 0.000000
v -2.525585 -10.000001 0.813745
v -1.618034 -10.000000 1.175571
v -1.175571 -10.000000 1.618034
v 0.000000 -10.000000 2.000000
v 0.618034 -10.000000 1.902113
v 1.560895 -10.000001 2.130411
v 1.618034 -10.000000 1.175571
v 2.525584 -10.000001 0.813745
v 2.000000 -10.000000 0.000000
v 2.031179 -7.192879 -0.654447
v 1.301290 -7.192879 -0.945443
v 1.255339 -7.192879 -1.713365
v 0.812568 -7.190210 -1.858909
v -1.301290 -7.192879 -0.945442
v -2.031179 -7.192879 -0.654446
v -1.608483 -7.192879 0.000000
v -2.031179 -7.192879 0.654446
v -1.301290 -7.192879 0.945442
v -0.945442 -7.192879 1.301290
v 0.537464 -7.761475 1.561749
v 1.255337 -7.192879 1.713364
v 1.301289 -7.192879 0.945442
v 2.031178 -7.192879 0.654446
v 1.608482 -7.192879 0.000000
v 1.544839 -3.460503 -0.497748
v 0.989713 -3.460503 -0.719069
v 0.954764 -3.460503 -1.303122
v 0.378037 -3.460503 -1.163478
v 0.218149 -3.460503 -1.665891
v 0.047049 -3.460503 -1.227184
v -0.989713 -3.460503 -0.719069
v -1.544839 -3.460503 -0.497748
v -1.223352 -3.460503 0.000000
v -1.544839 -3.460503 0.497747
v -0.989713 -3.460503 0.719068
v -0.719068 -3.460503 0.989712
v 1.043064 -4.276229 0.723947
v 1.544839 -3.460503 0.497747
v 1.223352 -3.460503 0.000000
v 1.129372 0.964989 -0.387674
v 0.619816 2.246617 -0.462837
v 0.595296 2.246617 -0.835177
v 0.232269 2.246617 -0.744406
v -0.009624 2.246617 -1.030083
v -0.246765 2.246617 -0.744406
v -0.614545 2.246617 -0.835177
v -0.634312 2.246617 -0.462837
v -0.988406 2.246617 -0.324907
v -0.782341 2.246617 -0.007248
v -0.988406 2.246617 0.305821
v -0.634312 2.246617 0.448340
v -0.462837 2.246617 0.619815
v 0.093674 7.356660 -0.497258
v -0.069193 8.186443 -0.660689
v -0.202786 8.186444 -0.477925
v -0.449733 8.186443 -0.538078
v -0.446581 8.186444 -0.300797
v -0.684920 8.186443 -0.217081
v -0.539703 8.186444 -0.014197
v -0.684920 8.186443 0.179695
v -0.446581 8.186444 0.272402
v -0.338711 8.186444 0.380272
v -0.215969 13.856268 -0.319585
v -0.406230 14.093701 -0.360423
v -0.377354 14.413011 -0.202332
v -0.561916 14.822379 -0.147933
v -0.438998 15.272686 -0.012612
v -0.561916 15.722991 0.114721
v -0.377354 16.066862 0.177108
v -0.305947 16.312481 0.248515
v 1.007238 -0.777186 0.003870
v 1.420074 -2.371181 0.460687
v 0.586625 3.093928 -0.434999
v 0.507745 4.783817 -0.711526
v -0.066777 10.075669 -0.597818
v 1.127076 -5.839691 1.518324
v -0.556347 -0.149083 -0.961039
v 2.525585 -10.000001 -0.813744
v 1.618035 -10.000000 -1.175571
v 1.560897 -10.000001 -2.130412
v -1.618034 -10.000000 -1.175571
v -2.525585 -10.000001 -0.813744
v -2.000000 -10.000000 0.000000
v -2.525585 -10.000001 0.813745
v -1.618034 -10.000000 1.175571
v -1.175571 -10.000000 1.618034
v 0.000000 -10.000000 2.000000
v 0.618034 -10.000000 1.902113
v 1.560895 -10.000001 2.130411
v 1.618034 -10.000000 1.175571
v 2.525584 -10.000001 0.813745
v 2.000000 -10.000000 0.000000
v 2.031179 -7.192879 -0.654447
v 1.301290 -7.192879 -0.945443
v 1.255339 -7.192879 -1.713365
v 0.812568 -7.190210 -1.858909
v -1.301290 -7.192879 -0.945442
v -2.031179 -7.192879 -0.654446
v -1.608483 -7.192879 0.000000
v -2.031179 -7.192879 0.654446
v -1.301290 -7.192879 0.945442
v -0.945442 -7.192879 1.301290
v 0.537464 -7.761475 1.561749
v 1.255337 -7.192879 1.713364
v 1.301289 -7.192879 0.945442
v 2.031178 -7.192879 0.654446
v 1.608482 -7.192879 0.000000
v 1.544839 -3.460503 -0.497748
v 0.989713 -3.460503 -0.719069
v 0.954764 -3.460503 -1.303122
v 0.378037 -3.460503 -1.163478
v 0.218149 -3.460503 -1.665891
v 0.047049 -3.460503 -1.227184
v -0.989713 -3.460503 -0.719069
v -1.544839 -3.460503 -0.497748
v -1.223352 -3.460503 0.000000
v -1.544839 -3.460503 0.497747
v -0.989713 -3.460503 0.719068
v -0.719068 -3.460503 0.989712
v 1.043064 -4.276229 0.723947
v 1.544839 -3.460503 0.497747
v 1.223352 -3.460503 0.000000
v 1.129372 0.964989 -0.387674
v 0.619816 2.246617 -0.462837
v 0.595296 2.246617 -0.835177
v 0.232269 2.246617 -0.744406
v -0.009624 2.246617 -1.030083
v -0.246765 2.246617 -0.744406
v -0.614545 2.246617 -0.835177
v -0.634312 2.246617 -0.462837
v -0.988406 2.246617 -0.324907
v -0.782341 2.246617 -0.007248
v -0.988406 2.246617 0.305821
v -0.634312 2.246617 0.448340
v -0.462837 2.246617 0.619815
v 0.093674 7.356660 -0.497258
v -0.069193 8.186443 -0.660689
v -0.202786 8.186444 -0.477925
v -0.449733 8.186443 -0.538078
v -0.446581 8.186444 -0.300797
v -0.684920 8.186443 -0.217081
v -0.539703 8.186444 -0.014197
v -0.684920 8.186443 0.179695
v -0.446581 8.186444 0.272402
v -0.338711 8.186444 0.380272
v -0.215969 13.856268 -0.319585
v -0.406230 14.093701 -0.360423
v -0.377354 14.413011 -0.202332
v -0.561916 14.822379 -0.147933
v -0.438998 15.272686 -0.012612
v -0.561916 15.722991 0.114721
v -0.377354 16.066862 0.177108
v -0.305947 16.312481 0.248515
v 1.007238 -0.777186 0.003870
v 1.420074 -2.371181 0.460687
v 0.586625 3.093928 -0.434999
v 0.507745 4.783817 -0.711526
v -0.066777 10.075669 -0.597818
v 1.127076 -5.839691 1.518324
v -0.556347 -0.149083 -0.961039
vt 0.593193 0.038807
vt 0.624325 0.038451
vt 0.624325 0.223812
vt 0.593193 0.224169
vt 0.840039 0.038451
vt 0.870856 0.038451
vt 0.870856 0.223812
vt 0.840039 0.223812
vt 0.901672 0.038451
vt 0.901672 0.223812
vt 0.932488 0.038451
vt 0.932488 0.223812
vt 0.963305 0.038451
vt 0.963305 0.223812
vt 0.500428 0.039164
vt 0.531245 0.039164
vt 0.531245 0.224526
vt 0.500428 0.224526
vt 0.562061 0.039164
vt 0.562061 0.224526
vt 0.870856 0.409174
vt 0.840039 0.409174
vt 0.901672 0.409174
vt 0.932488 0.409174
vt 0.963305 0.409174
vt 0.901672 0.594536
vt 0.870856 0.594536
vt 0.932488 0.594536
vt 0.963305 0.594536
vt 0.901672 0.779897
vt 0.870856 0.779897
vt 0.932488 0.779897
vt 0.963305 0.779897
vt 0.901672 0.965259
vt 0.870856 0.965259
vt 0.932488 0.965259
vt 0.963305 0.965259
vt 0.655141 0.038451
vt 0.655141 0.223812
vt 0.696230 0.192007
vt 0.809223 0.223812
vt 0.809223 0.038451
vt 0.624325 0.409174
vt 0.655141 0.409174
vt 0.685958 0.409174
vt 0.809223 0.409174
vt 0.469612 0.224526
vt 0.469612 0.039164
vt 0.593193 0.409531
vt 0.500428 0.409888
vt 0.531245 0.409888
vt 0.562061 0.409888
vt 0.593193 0.594892
vt 0.624325 0.594536
vt 0.655141 0.594536
vt 0.685958 0.779897
vt 0.685958 0.594536
vt 0.716774 0.594536
vt 0.716774 0.779897
vt 0.747590 0.965259
vt 0.747590 0.779897
vt 0.778407 0.779897
vt 0.778407 0.965259
vt 0.437778 0.228589
vt 0.438796 0.039164
vt 0.407979 0.039164
vt 0.469612 0.339612
vt 0.531245 0.481836
vt 0.562061 0.544861
vt 0.624325 0.659567
vt 0.655141 0.723735
vt 0.716775 0.885932
vt 0.840039 0.594536
vt 0.840039 0.779897
vt 0.809223 0.779897
vt 0.809223 0.965259
vt 0.840039 0.965259
vt 0.716774 0.409174
vt 0.747590 0.409174
vt 0.747590 0.594536
vt 0.778407 0.594536
vt 0.778407 0.519119
vt 0.809223 0.594536
vt 0.593193 0.038807
vt 0.624325 0.038451
vt 0.624325 0.223812
vt 0.593193 0.224169
vt 0.840039 0.038451
vt 0.870856 0.038451
vt 0.870856 0.223812
vt 0.840039 0.223812
vt 0.901672 0.038451
vt 0.901672 0.223812
vt 0.932488 0.038451
vt 0.932488 0.223812
vt 0.963305 0.038451
vt 0.963305 0.223812
vt 0.500428 0.039164
vt 0.531245 0.039164
vt 0.531245 0.224526
vt 0.500428 0.224526
vt 0.562061 0.039164
vt 0.562061 0.224526
vt 0.870856 0.409174
vt 0.840039 0.409174
vt 0.901672 0.409174
vt 0.932488 0.409174
vt 0.963305 0.409174
vt 0.901672 0.594536
vt 0.870856 0.594536
vt 0.932488 0.594536
vt 0.963305 0.594536
vt 0.901672 0.779897
vt 0.870856 0.779897
vt 0.932488 0.779897
vt 0.963305 0.779897
vt 0.901672 0.965259
vt 0.870856 0.965259
vt 0.932488 0.965259
vt 0.963305 0.965259
vt 0.655141 0.038451
vt 0.655141 0.223812
vt 0.696230 0.192007
vt 0.809223 0.223812
vt 0.809223 0.038451
vt 0.624325 0.409174
vt 0.655141 0.409174
vt 0.685958 0.409174
vt 0.809223 0.409174
vt 0.469612 0.224526
vt 0.469612 0.039164
vt 0.593193 0.409531
vt 0.500428 0.409888
vt 0.531245 0.409888
vt 0.562061 0.409888
vt 0.593193 0.594892
vt 0.624325 0.594536
vt 0.655141 0.594536
vt 0.685958 0.779897
vt 0.685958 0.594536
vt 0.716774 0.594536
vt 0.716774 0.779897
vt 0.747590 0.965259
vt 0.747590 0.779897
vt 0.778407 0.779897
vt 0.778407 0.965259
vt 0.437778 0.228589
vt 0.438796 0.039164
vt 0.407979 0.039164
vt 0.469612 0.339612
vt 0.531245 0.481836
vt 0.562061 0.544861
vt 0.624325 0.659567
vt 0.655141 0.723735
vt 0.716775 0.885932
vt 0.840039 0.594536
vt 0.840039 0.779897
vt 0.809223 0.779897
vt 0.809223 0.965259
vt 0.840039 0.965259
vt 0.716774 0.409174
vt 0.747590 0.409174
vt 0.747590 0.594536
vt 0.778407 0.594536
vt 0.778407 0.519119
vt 0.809223 0.594536
vn -0.367788 -0.117127 0.922504
vn -0.368404 -0.102037 0.924049
vn -0.368404 -0.102037 0.924049
vn -0.367788 -0.117127 0.922504
vn 0.834313 -0.116364 -0.538870
vn 0.835693 -0.101371 -0.539760
vn 0.835693 -0.101371 -0.539760
vn 0.834313 -0.116364 -0.538870
vn 0.834313 -0.116364 0.538870
vn 0.835693 -0.101371 0.539760
vn 0.835693 -0.101371 0.539760
vn 0.834313 -0.116364 0.538870
vn 0.367788 -0.117127 -0.922504
vn 0.368404 -0.102037 -0.924049
vn 0.368404 -0.102037 -0.924049
vn 0.367788 -0.117127 -0.922504
vn 0.700492 -0.136467 -0.700492
vn 0.702087 -0.118948 -0.702087
vn 0.702087 -0.118948 -0.702087
vn 0.700492 -0.136467 -0.700492
vn -0.367788 -0.117127 -0.922504
vn -0.350923 -0.103968 -0.930615
vn -0.350923 -0.103968 -0.930615
vn -0.367788 -0.117127 -0.922504
vn -0.834314 -0.116364 0.538869
vn -0.835693 -0.101371 0.539760
vn -0.835693 -0.101371 0.539760
vn -0.834314 -0.116364 0.538869
vn -0.834313 -0.116364 -0.538870
vn -0.835693 -0.101371 -0.539760
vn -0.835693 -0.101371 -0.539760
vn -0.834313 -0.116364 -0.538870
vn 0.837391 -0.075856 -0.541316
vn 0.837391 -0.075856 -0.541316
vn 0.836747 -0.074983 0.542432
vn 0.836747 -0.074983 0.542432
vn 0.369829 -0.077046 -0.925900
vn 0.369829 -0.077046 -0.925900
vn 0.704276 -0.089374 -0.704278
vn 0.704276 -0.089374 -0.704278
vn 0.829222 -0.047507 0.556896
vn 0.829222 -0.047507 0.556896
vn 0.369754 -0.053016 -0.927616
vn 0.369754 -0.053016 -0.927616
vn 0.705819 -0.060307 -0.705820
vn 0.705819 -0.060307 -0.705820
vn 0.792567 -0.020142 0.609452
vn 0.792567 -0.020142 0.609452
vn 0.361610 -0.026503 -0.931953
vn 0.361610 -0.026503 -0.931953
vn 0.711747 -0.028858 -0.701843
vn 0.711747 -0.028858 -0.701843
vn 0.761534 -0.008841 0.648065
vn 0.761534 -0.008841 0.648065
vn 0.354393 -0.014139 -0.934990
vn 0.354393 -0.014139 -0.934990
vn 0.716866 -0.014456 -0.697061
vn 0.716866 -0.014456 -0.697061
vn -0.993040 -0.101689 0.059423
vn -0.993040 -0.101689 0.059423
vn -0.991391 -0.116728 0.059324
vn -0.991391 -0.116728 0.059324
vn -0.308528 -0.172558 0.935433
vn -0.159220 -0.161791 0.973896
vn -0.159220 -0.161791 0.973896
vn 0.368404 -0.102037 0.924049
vn 0.368404 -0.102037 0.924049
vn 0.367788 -0.117127 0.922504
vn 0.367788 -0.117127 0.922504
vn -0.995173 -0.077096 0.060716
vn -0.995173 -0.077096 0.060716
vn 0.116737 -0.106872 0.987396
vn 0.116737 -0.106872 0.987396
vn 0.367851 -0.075559 0.926810
vn 0.367851 -0.075559 0.926810
vn -0.992077 -0.106848 -0.066089
vn -0.992077 -0.106848 -0.066089
vn -0.991390 -0.116728 -0.059325
vn -0.991390 -0.116728 -0.059325
vn -0.351587 -0.073431 0.933271
vn -0.351587 -0.073431 0.933271
vn -0.324751 -0.079557 -0.942447
vn -0.324751 -0.079557 -0.942447
vn -0.840893 -0.079016 0.535402
vn -0.840893 -0.079016 0.535402
vn -0.836349 -0.075937 -0.542912
vn -0.836349 -0.075937 -0.542912
vn -0.290912 -0.050747 0.955403
vn -0.290912 -0.050747 0.955403
vn -0.996756 -0.052907 0.060646
vn -0.996756 -0.052907 0.060646
vn -0.772075 -0.034630 0.634587
vn -0.772075 -0.034630 0.634587
vn -0.840825 -0.060036 0.537968
vn -0.840825 -0.060036 0.537968
vn -0.239155 -0.027543 0.970591
vn -0.239155 -0.027543 0.970591
vn -0.238696 -0.034695 0.970474
vn -0.238696 -0.034695 0.970474
vn 0.274661 -0.116779 -0.954424
vn 0.261343 -0.123700 -0.957287
vn 0.261343 -0.123700 -0.957287
vn 0.274661 -0.116779 -0.954424
vn 0.243280 -0.052186 0.968551
vn 0.243280 -0.052186 0.968551
vn -0.154570 -0.153949 -0.975914
vn -0.154570 -0.153949 -0.975914
vn -0.154570 -0.153949 -0.975914
vn 0.287914 -0.109830 -0.951338
vn -0.992620 -0.096953 -0.072844
vn -0.992620 -0.096953 -0.072844
vn -0.315554 -0.068341 -0.946443
vn -0.844824 -0.071670 0.530223
vn -0.844824 -0.071670 0.530223
vn -0.835720 -0.065510 -0.545234
vn -0.835720 -0.065510 -0.545234
vn -0.247149 -0.041487 0.968089
vn -0.997504 -0.038243 0.059359
vn -0.997504 -0.038243 0.059359
vn 0.248882 -0.039563 0.967726
vn 0.248882 -0.039563 0.967726
vn -0.758748 -0.020696 0.651055
vn 0.783896 -0.017047 0.620658
vn 0.783837 -0.024610 0.620479
vn 0.783837 -0.024610 0.620479
vn 0.783896 -0.017047 0.620658
vn 0.833275 -0.049352 -0.550652
vn 0.833275 -0.049352 -0.550652
vn 0.809644 -0.021540 -0.586526
vn 0.809644 -0.021540 -0.586526
vn 0.997180 -0.007565 -0.074668
vn 0.997180 -0.007565 -0.074668
vn 0.999534 -0.019161 -0.023751
vn 0.999534 -0.019161 -0.023751
vn 0.295620 -0.016865 0.955157
vn 0.295620 -0.016865 0.955157
vn 0.323051 -0.026316 0.946016
vn 0.323051 -0.026316 0.946016
vn 0.789827 -0.009715 -0.613252
vn 0.789827 -0.009715 -0.613252
vn -0.918283 -0.118629 0.377735
vn -0.918283 -0.118629 0.377735
vn -0.939807 -0.165259 0.299085
vn 0.923916 0.128601 0.360335
vn 0.901892 0.060440 0.427712
vn 0.901892 0.060440 0.427712
vn 0.830031 -0.020302 0.557347
vn 0.830031 -0.020302 0.557347
vn -0.163640 -0.060315 0.984675
vn -0.088055 -0.078416 0.993024
vn -0.088055 -0.078416 0.993024
vn -0.163640 -0.060315 0.984675
vn 0.998364 0.021468 0.053002
vn 0.999184 -0.004620 0.040134
vn 0.999184 -0.004620 0.040134
vn 0.358502 -0.049971 0.932191
vn 0.358502 -0.049971 0.932191
vn 0.367788 0.117127 -0.922504
vn 0.367788 0.117127 -0.922504
vn 0.368404 0.102037 -0.924049
vn 0.368404 0.102037 -0.924049
vn -0.834313 0.116364 0.538870
vn -0.834313 0.116364 0.538870
vn -0.835693 0.101371 0.539760
vn -0.835693 0.101371 0.539760
vn -0.834313 0.116364 -0.538870
vn -0.834313 0.116364 -0.538870
vn -0.835693 0.101371 -0.539760
vn -0.835693 0.101371 -0.539760
vn -0.367788 0.117127 0.922504
vn -0.367788 0.117127 0.922504
vn -0.368404 0.102037 0.924049
vn -0.368404 0.102037 0.924049
vn -0.700492 0.136467 0.700492
vn -0.700492 0.136467 0.700492
vn -0.702087 0.118948 0.702087
vn -0.702087 0.118948 0.702087
vn 0.367788 0.117127 0.922504
vn 0.367788 0.117127 0.922504
vn 0.350923 0.103968 0.930615
vn 0.350923 0.103968 0.930615
vn 0.834314 0.116364 -0.538869
vn 0.834314 0.116364 -0.538869
vn 0.835693 0.101371 -0.539760
vn 0.835693 0.101371 -0.539760
vn 0.834313 0.116364 0.538870
vn 0.834313 0.116364 0.538870
vn 0.835693 0.101371 0.539760
vn 0.835693 0.101371 0.539760
vn -0.837391 0.075856 0.541316
vn -0.837391 0.075856 0.541316
vn -0.836747 0.074983 -0.542432
vn -0.836747 0.074983 -0.542432
vn -0.369829 0.077046 0.925900
vn -0.369829 0.077046 0.925900
vn -0.704276 0.089374 0.704278
vn -0.704276 0.089374 0.704278
vn -0.829222 0.047507 -0.556896
vn -0.829222 0.047507 -0.556896
vn -0.369754 0.053016 0.927616
vn -0.369754 0.053016 0.927616
vn -0.705819 0.060307 0.705820
vn -0.705819 0.060307 0.705820
vn -0.792567 0.020142 -0.609452
vn -0.792567 0.020142 -0.609452
vn -0.361610 0.026503 0.931953
vn -0.361610 0.026503 0.931953
vn -0.711747 0.028858 0.701843
vn -0.711747 0.028858 0.701843
vn -0.761534 0.008841 -0.648065
vn -0.761534 0.008841 -0.648065
vn -0.354393 0.014139 0.934990
vn -0.354393 0.014139 0.934990
vn -0.716866 0.014456 0.697061
vn -0.716866 0.014456 0.697061
vn 0.993040 0.101689 -0.059423
vn 0.991391 0.116728 -0.059324
vn 0.991391 0.116728 -0.059324
vn 0.993040 0.101689 -0.059423
vn 0.308528 0.172558 -0.935433
vn 0.159220 0.161791 -0.973896
vn 0.159220 0.161791 -0.973896
vn -0.368404 0.102037 -0.924049
vn -0.367788 0.117127 -0.922504
vn -0.367788 0.117127 -0.922504
vn -0.368404 0.102037 -0.924049
vn 0.995173 0.077096 -0.060716
vn 0.995173 0.077096 -0.060716
vn -0.116737 0.106872 -0.987396
vn -0.116737 0.106872 -0.987396
vn -0.367851 0.075559 -0.926810
vn -0.367851 0.075559 -0.926810
vn 0.992076 0.106848 0.066089
vn 0.991391 0.116728 0.059325
vn 0.991391 0.116728 0.059325
vn 0.992076 0.106848 0.066089
vn 0.351587 0.073431 -0.933271
vn 0.351587 0.073431 -0.933271
vn 0.324751 0.079557 0.942447
vn 0.324751 0.079557 0.942447
vn 0.840893 0.079016 -0.535401
vn 0.840893 0.079016 -0.535401
vn 0.836349 0.075937 0.542912
vn 0.836349 0.075937 0.542912
vn 0.290912 0.050747 -0.955403
vn 0.290912 0.050747 -0.955403
vn 0.996756 0.052907 -0.060646
vn 0.996756 0.052907 -0.060646
vn 0.772075 0.034630 -0.634587
vn 0.840825 0.060036 -0.537968
vn 0.840825 0.060036 -0.537968
vn 0.772075 0.034630 -0.634587
vn 0.239155 0.027543 -0.970591
vn 0.238696 0.034695 -0.970474
vn 0.238696 0.034695 -0.970474
vn 0.239155 0.027543 -0.970591
vn -0.274660 0.116779 0.954424
vn -0.274660 0.116779 0.954424
vn -0.261343 0.123700 0.957287
vn -0.261343 0.123700 0.957287
vn -0.243280 0.052186 -0.968551
vn -0.243280 0.052186 -0.968551
vn 0.154570 0.153949 0.975914
vn 0.154570 0.153949 0.975914
vn 0.154570 0.153949 0.975914
vn -0.287914 0.109830 0.951338
vn 0.992620 0.096953 0.072844
vn 0.992620 0.096953 0.072844
vn 0.315554 0.068341 0.946443
vn 0.844824 0.071670 -0.530223
vn 0.844824 0.071670 -0.530223
vn 0.835720 0.065510 0.545234
vn 0.835720 0.065510 0.545234
vn 0.247149 0.041488 -0.968089
vn 0.997504 0.038243 -0.059359
vn 0.997504 0.038243 -0.059359
vn -0.248882 0.039563 -0.967726
vn -0.248882 0.039563 -0.967726
vn 0.758748 0.020696 -0.651055
vn -0.783896 0.017047 -0.620658
vn -0.783896 0.017047 -0.620658
vn -0.783837 0.024610 -0.620479
vn -0.783837 0.024610 -0.620479
vn -0.833275 0.049352 0.550652
vn -0.833275 0.049352 0.550652
vn -0.809644 0.021540 0.586526
vn -0.809644 0.021540 0.586526
vn -0.997180 0.007565 0.074668
vn -0.999534 0.019161 0.023751
vn -0.999534 0.019161 0.023751
vn -0.997180 0.007565 0.074668
vn -0.295620 0.016865 -0.955157
vn -0.323051 0.026316 -0.946016
vn -0.323051 0.026316 -0.946016
vn -0.295620 0.016865 -0.955157
vn -0.789827 0.009715 0.613252
vn -0.789827 0.009715 0.613252
vn 0.918283 0.118629 -0.377735
vn 0.939807 0.165259 -0.299085
vn 0.918283 0.118629 -0.377735
vn -0.923916 -0.128601 -0.360335
vn -0.901892 -0.060440 -0.427712
vn -0.901892 -0.060440 -0.427712
vn -0.830031 0.020302 -0.557347
vn -0.830031 0.020302 -0.557347
vn 0.163640 0.060315 -0.984675
vn 0.163640 0.060315 -0.984675
vn 0.088055 0.078416 -0.993024
vn 0.088055 0.078416 -0.993024
vn -0.998364 -0.021468 -0.053002
vn -0.999184 0.004620 -0.040134
vn -0.999184 0.004620 -0.040134
vn -0.358502 0.049971 -0.932191
vn -0.358502 0.049971 -0.932191
s 1
g polySurface1
usemtl tower_lv1_initialShadingGroup
f 1/1/1 16/4/2 17/3/3 2/2/4
s 2
f 5/5/5 21/8/6 22/7/7 6/6/8
s 3
f 6/6/9 22/7/10 23/10/11 7/9/12
s 4
f 7/9/13 23/10/14 24/12/15 8/11/16
s 5
f 8/11/17 24/12/18 25/14/19 9/13/20
s 6
f 13/15/21 28/18/22 29/17/23 14/16/24
s 7
f 14/16/25 29/17/26 30/20/27 15/19/28
s 8
f 15/19/29 30/20/30 16/4/31 1/1/32
s 2
f 21/8/6 38/22/33 39/21/34 22/7/7
s 3
f 22/7/10 39/21/35 40/23/36 23/10/11
s 4
f 23/10/14 40/23/37 41/24/38 24/12/15
s 5
f 24/12/18 41/24/39 42/25/40 25/14/19
s 3
f 39/21/35 55/27/41 56/26/42 40/23/36
s 4
f 40/23/37 56/26/43 57/28/44 41/24/38
s 5
f 41/24/39 57/28/45 58/29/46 42/25/40
s 3
f 55/27/41 65/31/47 66/30/48 56/26/42
s 4
f 56/26/43 66/30/49 67/32/50 57/28/44
s 5
f 57/28/45 67/32/51 68/33/52 58/29/46
s 3
f 65/31/47 73/35/53 74/34/54 66/30/48
s 4
f 66/30/49 74/34/55 75/36/56 67/32/50
s 5
f 67/32/51 75/36/57 76/37/58 68/33/52
s 9
f 17/3/59 18/39/60 3/38/61 2/2/62
s 10
f 3/38/63 18/39/64 19/40/65
s 11
f 20/41/66 21/8/67 5/5/68 4/42/69
s 9
f 32/43/70 33/44/71 18/39/60 17/3/59
s 10
f 33/44/72 34/45/73 19/40/65 18/39/64
s 11
f 37/46/74 38/22/75 21/8/67 20/41/66
s 12
f 27/47/76 28/18/77 13/15/78 12/48/79
s 1
f 31/49/80 32/43/81 17/3/3 16/4/2
s 6
f 43/50/82 44/51/83 29/17/23 28/18/22
s 7
f 44/51/84 45/52/85 30/20/27 29/17/26
s 8
f 45/52/86 31/49/87 16/4/31 30/20/30
s 1
f 46/53/88 47/54/89 32/43/81 31/49/80
s 9
f 47/54/90 48/55/91 33/44/71 32/43/70
s 13
f 59/56/92 60/59/93 50/58/94 49/57/95
s 14
f 69/60/96 70/63/97 62/62/98 61/61/99
s 15
f 27/47/100 12/48/101 11/65/102 26/64/103
s 10
f 49/57/104 34/45/73 33/44/72 48/55/105
s off
f 26/64/106 11/65/107 10/66/108
s 15
f 82/67/109 27/47/100 26/64/103
s 12
f 43/50/110 28/18/77 27/47/76 82/67/111
s 6
f 78/68/112 44/51/83 43/50/82
s 7
f 77/69/113 45/52/85 44/51/84 78/68/114
s 8
f 46/53/115 31/49/87 45/52/86 77/69/116
s 1
f 79/70/117 47/54/89 46/53/88
s 9
f 80/71/118 48/55/91 47/54/90 79/70/119
s 10
f 59/56/120 49/57/104 48/55/105 80/71/121
s 13
f 81/72/122 60/59/93 59/56/92
s 16
f 69/60/123 61/61/124 60/59/125 81/72/126
s 2
f 54/73/127 55/27/128 39/21/34 38/22/33
f 64/74/129 65/31/130 55/27/128 54/73/127
s 17
f 70/63/131 71/76/132 63/75/133 62/62/134
s 11
f 71/76/135 72/77/136 64/74/137 63/75/138
s 2
f 72/77/139 73/35/140 65/31/130 64/74/129
s 13
f 34/45/141 35/78/142 19/40/143
s 16
f 19/40/144 35/78/145 36/79/146
f 51/80/147 36/79/146 35/78/145 50/58/148
s 14
f 52/81/149 83/82/150 36/79/151 51/80/152
s 17
f 83/82/153 52/81/154 53/83/155
s 11
f 54/73/156 38/22/75 37/46/74 53/83/157
s 17
f 63/75/133 53/83/155 52/81/154 62/62/134
s 11
f 64/74/137 54/73/156 53/83/157 63/75/138
s 16
f 61/61/124 51/80/147 50/58/148 60/59/125
s 13
f 35/78/142 34/45/141 49/57/95 50/58/94
s 14
f 52/81/149 51/80/152 61/61/99 62/62/98
s 20
usemtl pasted__tower_lv1_initialShadingGroup
f 84/84/158 85/85/159 100/86/160 99/87/161
s 21
f 88/88/162 89/89/163 105/90/164 104/91/165
s 22
f 89/89/166 90/92/167 106/93/168 105/90/169
s 23
f 90/92/170 91/94/171 107/95/172 106/93/173
s 24
f 91/94/174 92/96/175 108/97/176 107/95/177
s 25
f 96/98/178 97/99/179 112/100/180 111/101/181
s 26
f 97/99/182 98/102/183 113/103/184 112/100/185
s 27
f 98/102/186 84/84/187 99/87/188 113/103/189
s 21
f 104/91/165 105/90/164 122/104/190 121/105/191
s 22
f 105/90/169 106/93/168 123/106/192 122/104/193
s 23
f 106/93/173 107/95/172 124/107/194 123/106/195
s 24
f 107/95/177 108/97/176 125/108/196 124/107/197
s 22
f 122/104/193 123/106/192 139/109/198 138/110/199
s 23
f 123/106/195 124/107/194 140/111/200 139/109/201
s 24
f 124/107/197 125/108/196 141/112/202 140/111/203
s 22
f 138/110/199 139/109/198 149/113/204 148/114/205
s 23
f 139/109/201 140/111/200 150/115/206 149/113/207
s 24
f 140/111/203 141/112/202 151/116/208 150/115/209
s 22
f 148/114/205 149/113/204 157/117/210 156/118/211
s 23
f 149/113/207 150/115/206 158/119/212 157/117/213
s 24
f 150/115/209 151/116/208 159/120/214 158/119/215
s 28
f 100/86/216 85/85/217 86/121/218 101/122/219
s 29
f 86/121/220 102/123/221 101/122/222
s 30
f 103/124/223 87/125/224 88/88/225 104/91/226
s 28
f 115/126/227 100/86/216 101/122/219 116/127/228
s 29
f 116/127/229 101/122/222 102/123/221 117/128/230
s 30
f 120/129/231 103/124/223 104/91/226 121/105/232
s 31
f 110/130/233 95/131/234 96/98/235 111/101/236
s 20
f 114/132/237 99/87/161 100/86/160 115/126/238
s 25
f 126/133/239 111/101/181 112/100/180 127/134/240
s 26
f 127/134/241 112/100/185 113/103/184 128/135/242
s 27
f 128/135/243 113/103/189 99/87/188 114/132/244
s 20
f 129/136/245 114/132/237 115/126/238 130/137/246
s 28
f 130/137/247 115/126/227 116/127/228 131/138/248
s 32
f 142/139/249 132/140/250 133/141/251 143/142/252
s 33
f 152/143/253 144/144/254 145/145/255 153/146/256
s 34
f 110/130/257 109/147/258 94/148/259 95/131/260
s 29
f 132/140/261 131/138/262 116/127/229 117/128/230
s off
f 109/147/263 93/149/264 94/148/265
s 34
f 165/150/266 109/147/258 110/130/257
s 31
f 126/133/267 165/150/268 110/130/233 111/101/236
s 25
f 161/151/269 126/133/239 127/134/240
s 26
f 160/152/270 161/151/271 127/134/241 128/135/242
s 27
f 129/136/272 160/152/273 128/135/243 114/132/244
s 20
f 162/153/274 129/136/245 130/137/246
s 28
f 163/154/275 162/153/276 130/137/247 131/138/248
s 29
f 142/139/277 163/154/278 131/138/262 132/140/261
s 32
f 164/155/279 142/139/249 143/142/252
s 35
f 152/143/280 164/155/281 143/142/282 144/144/283
s 21
f 137/156/284 121/105/191 122/104/190 138/110/285
f 147/157/286 137/156/284 138/110/285 148/114/287
s 36
f 153/146/288 145/145/289 146/158/290 154/159/291
s 30
f 154/159/292 146/158/293 147/157/294 155/160/295
s 21
f 155/160/296 147/157/286 148/114/287 156/118/297
s 32
f 117/128/298 102/123/299 118/161/300
s 35
f 102/123/301 119/162/302 118/161/303
f 134/163/304 133/141/305 118/161/303 119/162/302
s 33
f 135/164/306 134/163/307 119/162/308 166/165/309
s 36
f 166/165/310 136/166/311 135/164/312
s 30
f 137/156/313 136/166/314 120/129/231 121/105/232
s 36
f 146/158/290 145/145/289 135/164/312 136/166/311
s 30
f 147/157/294 146/158/293 136/166/314 137/156/313
s 35
f 144/144/283 143/142/282 133/141/305 134/163/304
s 32
f 118/161/300 133/141/251 132/140/250 117/128/298
s 33
f 135/164/306 145/145/255 144/144/254 134/163/307
