# This file uses centimeters as units for non-parametric coordinates.

mtllib lv1_4.mtl
g default
v 0.140242 -0.200125 0.386640
v 1.523507 -0.200125 0.386640
v 0.140242 5.359062 0.386640
v 1.523507 5.359062 0.386640
v 0.140242 5.359062 -0.613360
v 1.523507 5.359062 -0.613360
v 0.140242 -0.200125 -0.613360
v 1.523507 -0.200125 -0.613360
v -0.622549 4.678602 0.069391
v 0.261972 4.678602 0.069391
v -0.622549 4.976877 0.069391
v 0.261972 4.976877 0.069391
v -0.622549 4.976877 -0.228883
v 0.261972 4.976877 -0.228883
v -0.622549 4.678602 -0.228883
v 0.261972 4.678602 -0.228883
v 0.960124 5.306074 0.200166
v 1.349479 5.306074 0.200166
v 0.960124 5.535197 0.200166
v 1.349479 5.535197 0.200166
v 0.960124 5.535197 -0.374403
v 1.349479 5.535197 -0.374403
v 0.960124 5.306074 -0.374403
v 1.349479 5.306074 -0.374403
v -0.965251 6.881316 0.125352
v -0.965251 6.881316 -0.127802
v -0.965251 7.100650 0.125352
v -0.965251 7.100650 -0.127802
v -1.338829 7.100650 0.125352
v -1.338829 7.100650 -0.127802
v -1.338829 6.881316 0.125352
v -1.338829 6.881316 -0.127802
v -0.519245 -0.187114 0.889500
v -0.519245 -0.187114 -0.624406
v -0.519245 6.940875 0.889500
v -0.519245 6.940875 -0.624406
v -1.729992 6.940875 0.889500
v -1.729992 6.940875 -0.624406
v -1.729992 -0.187114 0.889500
v -1.729992 -0.187114 -0.624406
v -0.622549 3.080625 0.069391
v 0.261972 3.080625 0.069391
v -0.622549 3.378900 0.069391
v 0.261972 3.378900 0.069391
v -0.622549 3.378900 -0.228883
v 0.261972 3.378900 -0.228883
v -0.622549 3.080625 -0.228883
v 0.261972 3.080625 -0.228883
v -0.965251 6.881316 0.444384
v -0.965251 6.881316 0.191229
v -0.965251 7.100650 0.444384
v -0.965251 7.100650 0.191229
v -1.338829 7.100650 0.444384
v -1.338829 7.100650 0.191229
v -1.338829 6.881316 0.444384
v -1.338829 6.881316 0.191229
vt 0.610754 0.019348
vt 0.740765 0.019358
vt 0.740725 0.541858
vt 0.610714 0.541848
vt 0.740718 0.635846
vt 0.610707 0.635836
vt 0.964725 0.541875
vt 0.834714 0.541865
vt 0.834754 0.019365
vt 0.964765 0.019375
vt 0.516766 0.019341
vt 0.516726 0.541840
vt 0.034417 0.832386
vt 0.143301 0.832495
vt 0.143264 0.869213
vt 0.034380 0.869103
vt 0.143227 0.905930
vt 0.034343 0.905820
vt 0.143190 0.942647
vt 0.034307 0.942538
vt 0.143153 0.979365
vt 0.034270 0.979255
vt 0.088541 0.697094
vt 0.128069 0.697109
vt 0.128060 0.720369
vt 0.088532 0.720354
vt 0.128037 0.778699
vt 0.088510 0.778684
vt 0.128028 0.801960
vt 0.088501 0.801945
vt 0.186399 0.697131
vt 0.186390 0.720392
vt 0.030211 0.697071
vt 0.030202 0.720331
vt 0.217015 0.890386
vt 0.243160 0.890387
vt 0.243159 0.913039
vt 0.217014 0.913038
vt 0.243157 0.951620
vt 0.217013 0.951619
vt 0.243156 0.974272
vt 0.217012 0.974271
vt 0.281742 0.890389
vt 0.281741 0.913041
vt 0.178434 0.890384
vt 0.178433 0.913036
vt 0.118698 0.018905
vt 0.246402 0.018903
vt 0.246255 0.542134
vt 0.118765 0.542108
vt 0.247201 0.636028
vt 0.117759 0.636021
vt 0.469845 0.542201
vt 0.342600 0.542313
vt 0.342644 0.018914
vt 0.469885 0.019049
vt 0.024013 0.019255
vt 0.023977 0.541923
vt 0.034417 0.832386
vt 0.143301 0.832495
vt 0.143264 0.869213
vt 0.034380 0.869103
vt 0.143227 0.905930
vt 0.034343 0.905820
vt 0.143190 0.942647
vt 0.034307 0.942538
vt 0.143153 0.979365
vt 0.034270 0.979255
vt 0.217015 0.890386
vt 0.243160 0.890387
vt 0.243159 0.913039
vt 0.217014 0.913038
vt 0.243157 0.951620
vt 0.217013 0.951619
vt 0.243156 0.974272
vt 0.217012 0.974271
vt 0.281742 0.890389
vt 0.281741 0.913041
vt 0.178434 0.890384
vt 0.178433 0.913036
vn 0.000000 0.000000 1.000000
vn 0.000000 0.000000 1.000000
vn 0.000000 0.000000 1.000000
vn 0.000000 0.000000 1.000000
vn 0.000000 1.000000 0.000000
vn 0.000000 1.000000 0.000000
vn 0.000000 1.000000 0.000000
vn 0.000000 1.000000 0.000000
vn 0.000000 0.000000 -1.000000
vn 0.000000 0.000000 -1.000000
vn 0.000000 0.000000 -1.000000
vn 0.000000 0.000000 -1.000000
vn 1.000000 0.000000 0.000000
vn 1.000000 0.000000 0.000000
vn 1.000000 0.000000 0.000000
vn 1.000000 0.000000 0.000000
vn -1.000000 0.000000 0.000000
vn -1.000000 0.000000 0.000000
vn -1.000000 0.000000 0.000000
vn -1.000000 0.000000 0.000000
vn 0.000000 0.000000 1.000000
vn 0.000000 0.000000 1.000000
vn 0.000000 0.000000 1.000000
vn 0.000000 0.000000 1.000000
vn 0.000000 1.000000 0.000000
vn 0.000000 1.000000 0.000000
vn 0.000000 1.000000 0.000000
vn 0.000000 1.000000 0.000000
vn 0.000000 0.000000 -1.000000
vn 0.000000 0.000000 -1.000000
vn 0.000000 0.000000 -1.000000
vn 0.000000 0.000000 -1.000000
vn 0.000000 -1.000000 0.000000
vn 0.000000 -1.000000 0.000000
vn 0.000000 -1.000000 0.000000
vn 0.000000 -1.000000 0.000000
vn 0.000000 0.000000 1.000000
vn 0.000000 0.000000 1.000000
vn 0.000000 0.000000 1.000000
vn 0.000000 0.000000 1.000000
vn 0.000000 1.000000 0.000000
vn 0.000000 1.000000 0.000000
vn 0.000000 1.000000 0.000000
vn 0.000000 1.000000 0.000000
vn 0.000000 0.000000 -1.000000
vn 0.000000 0.000000 -1.000000
vn 0.000000 0.000000 -1.000000
vn 0.000000 0.000000 -1.000000
vn 1.000000 0.000000 0.000000
vn 1.000000 0.000000 0.000000
vn 1.000000 0.000000 0.000000
vn 1.000000 0.000000 0.000000
vn -1.000000 0.000000 0.000000
vn -1.000000 0.000000 0.000000
vn -1.000000 0.000000 0.000000
vn -1.000000 0.000000 0.000000
vn 1.000000 0.000000 0.000000
vn 1.000000 0.000000 0.000000
vn 1.000000 0.000000 0.000000
vn 1.000000 0.000000 0.000000
vn 0.000000 1.000000 0.000000
vn 0.000000 1.000000 0.000000
vn 0.000000 1.000000 0.000000
vn 0.000000 1.000000 0.000000
vn -1.000000 0.000000 0.000000
vn -1.000000 0.000000 0.000000
vn -1.000000 0.000000 0.000000
vn -1.000000 0.000000 0.000000
vn 0.000000 0.000000 -1.000000
vn 0.000000 0.000000 -1.000000
vn 0.000000 0.000000 -1.000000
vn 0.000000 0.000000 -1.000000
vn 0.000000 0.000000 1.000000
vn 0.000000 0.000000 1.000000
vn 0.000000 0.000000 1.000000
vn 0.000000 0.000000 1.000000
vn 1.000000 0.000000 0.000000
vn 1.000000 0.000000 0.000000
vn 1.000000 0.000000 0.000000
vn 1.000000 0.000000 0.000000
vn 0.000000 1.000000 0.000000
vn 0.000000 1.000000 0.000000
vn 0.000000 1.000000 0.000000
vn 0.000000 1.000000 0.000000
vn -1.000000 0.000000 0.000000
vn -1.000000 0.000000 0.000000
vn -1.000000 0.000000 0.000000
vn -1.000000 0.000000 0.000000
vn 0.000000 0.000000 -1.000000
vn 0.000000 0.000000 -1.000000
vn 0.000000 0.000000 -1.000000
vn 0.000000 0.000000 -1.000000
vn 0.000000 0.000000 1.000000
vn 0.000000 0.000000 1.000000
vn 0.000000 0.000000 1.000000
vn 0.000000 0.000000 1.000000
vn 0.000000 0.000000 1.000000
vn 0.000000 0.000000 1.000000
vn 0.000000 0.000000 1.000000
vn 0.000000 0.000000 1.000000
vn 0.000000 1.000000 0.000000
vn 0.000000 1.000000 0.000000
vn 0.000000 1.000000 0.000000
vn 0.000000 1.000000 0.000000
vn 0.000000 0.000000 -1.000000
vn 0.000000 0.000000 -1.000000
vn 0.000000 0.000000 -1.000000
vn 0.000000 0.000000 -1.000000
vn 0.000000 -1.000000 0.000000
vn 0.000000 -1.000000 0.000000
vn 0.000000 -1.000000 0.000000
vn 0.000000 -1.000000 0.000000
vn 1.000000 0.000000 0.000000
vn 1.000000 0.000000 0.000000
vn 1.000000 0.000000 0.000000
vn 1.000000 0.000000 0.000000
vn 0.000000 1.000000 0.000000
vn 0.000000 1.000000 0.000000
vn 0.000000 1.000000 0.000000
vn 0.000000 1.000000 0.000000
vn -1.000000 0.000000 0.000000
vn -1.000000 0.000000 0.000000
vn -1.000000 0.000000 0.000000
vn -1.000000 0.000000 0.000000
vn 0.000000 0.000000 -1.000000
vn 0.000000 0.000000 -1.000000
vn 0.000000 0.000000 -1.000000
vn 0.000000 0.000000 -1.000000
vn 0.000000 0.000000 1.000000
vn 0.000000 0.000000 1.000000
vn 0.000000 0.000000 1.000000
vn 0.000000 0.000000 1.000000
s off
g polySurface12
usemtl initialShadingGroup
f 1/1/1 2/2/2 4/3/3 3/4/4
f 3/4/5 4/3/6 6/5/7 5/6/8
f 5/7/9 6/8/10 8/9/11 7/10/12
f 2/2/13 8/9/14 6/8/15 4/3/16
f 7/11/17 1/1/18 3/4/19 5/12/20
f 9/13/21 10/14/22 12/15/23 11/16/24
f 11/16/25 12/15/26 14/17/27 13/18/28
f 13/18/29 14/17/30 16/19/31 15/20/32
f 15/20/33 16/19/34 10/21/35 9/22/36
f 17/23/37 18/24/38 20/25/39 19/26/40
f 19/26/41 20/25/42 22/27/43 21/28/44
f 21/28/45 22/27/46 24/29/47 23/30/48
f 18/24/49 24/31/50 22/32/51 20/25/52
f 23/33/53 17/23/54 19/26/55 21/34/56
f 25/35/57 26/36/58 28/37/59 27/38/60
f 27/38/61 28/37/62 30/39/63 29/40/64
f 29/40/65 30/39/66 32/41/67 31/42/68
f 26/36/69 32/43/70 30/44/71 28/37/72
f 31/45/73 25/35/74 27/38/75 29/46/76
f 33/47/77 34/48/78 36/49/79 35/50/80
f 35/50/81 36/49/82 38/51/83 37/52/84
f 37/53/85 38/54/86 40/55/87 39/56/88
f 34/48/89 40/55/90 38/54/91 36/49/92
f 39/57/93 33/47/94 35/50/95 37/58/96
f 41/59/97 42/60/98 44/61/99 43/62/100
f 43/62/101 44/61/102 46/63/103 45/64/104
f 45/64/105 46/63/106 48/65/107 47/66/108
f 47/66/109 48/65/110 42/67/111 41/68/112
f 49/69/113 50/70/114 52/71/115 51/72/116
f 51/72/117 52/71/118 54/73/119 53/74/120
f 53/74/121 54/73/122 56/75/123 55/76/124
f 50/70/125 56/77/126 54/78/127 52/71/128
f 55/79/129 49/69/130 51/72/131 53/80/132
