# This file uses centimeters as units for non-parametric coordinates.

mtllib lv1_3.mtl
g default
v -1.423423 -0.260912 0.715305
v -1.071161 -0.260912 1.067567
v -1.423423 8.375997 0.715305
v -1.071161 8.375997 1.067567
v 1.423423 -0.260912 0.715305
v 1.071161 -0.260912 1.067567
v 1.423423 8.375997 0.715305
v 1.071161 8.375997 1.067567
v -1.423423 8.375997 -0.715305
v -1.071161 8.375997 -1.067567
v -1.423423 -0.260912 -0.715305
v -1.071161 -0.260912 -1.067567
v 1.071161 8.375997 -1.067567
v 1.423423 8.375997 -0.715305
v 1.423423 -0.260912 -0.715305
v 1.071161 -0.260912 -1.067567
v 0.464488 8.294950 0.373999
v 0.932152 8.294950 0.373999
v 0.464488 8.618327 0.373999
v 0.932152 8.618327 0.373999
v 0.464488 8.618327 -0.379262
v 0.932152 8.618327 -0.379262
v 0.464488 8.294950 -0.379262
v 0.932152 8.294950 -0.379262
vt 0.018151 0.677543
vt 0.292394 0.677543
vt 0.292394 0.824837
vt 0.018151 0.824837
vt 0.051771 0.645989
vt 0.257831 0.011178
vt 0.786454 0.646430
vt 0.786454 0.011178
vt 0.978987 0.011178
vt 0.978987 0.646430
vt 0.743738 0.011178
vt 0.537363 0.646430
vt 0.296918 0.646430
vt 0.296918 0.011178
vt 0.494626 0.011178
vt 0.494626 0.646430
vt 0.017523 0.011178
vt 0.051457 0.011178
vt 0.017523 0.646430
vt 0.258146 0.645989
vt 0.258460 0.854543
vt 0.052085 0.854543
vt 0.537363 0.011178
vt 0.743738 0.646430
vt 0.411791 0.668500
vt 0.466078 0.668500
vt 0.466078 0.699767
vt 0.411791 0.699767
vt 0.466078 0.785478
vt 0.411791 0.785478
vt 0.466078 0.820376
vt 0.411791 0.820376
vt 0.562750 0.668500
vt 0.562750 0.699767
vt 0.319013 0.668500
vt 0.319013 0.699767
vn 0.000000 0.000000 1.000000
vn 0.000000 0.000000 1.000000
vn 0.000000 0.000000 1.000000
vn 0.000000 0.000000 1.000000
vn 0.000000 0.000000 -1.000000
vn 0.000000 0.000000 -1.000000
vn 0.000000 0.000000 -1.000000
vn 0.000000 0.000000 -1.000000
vn 1.000000 0.000000 0.000000
vn 1.000000 0.000000 0.000000
vn 1.000000 0.000000 0.000000
vn 1.000000 0.000000 0.000000
vn -1.000000 0.000000 0.000000
vn -1.000000 0.000000 0.000000
vn -1.000000 0.000000 0.000000
vn -1.000000 0.000000 0.000000
vn 0.000000 1.000000 -0.000000
vn 0.000000 1.000000 -0.000000
vn 0.000000 1.000000 -0.000000
vn 0.000000 1.000000 -0.000000
vn 0.000000 1.000000 -0.000000
vn 0.000000 1.000000 -0.000000
vn 0.000000 1.000000 -0.000000
vn 0.000000 1.000000 -0.000000
vn -0.707107 0.000000 0.707107
vn -0.707107 0.000000 0.707107
vn -0.707107 0.000000 0.707107
vn -0.707107 0.000000 0.707107
vn 0.707107 0.000000 0.707107
vn 0.707107 0.000000 0.707107
vn 0.707107 0.000000 0.707107
vn 0.707107 0.000000 0.707107
vn -0.707107 0.000000 -0.707107
vn -0.707107 0.000000 -0.707107
vn -0.707107 0.000000 -0.707107
vn -0.707107 0.000000 -0.707107
vn 0.707107 0.000000 -0.707107
vn 0.707107 0.000000 -0.707107
vn 0.707107 0.000000 -0.707107
vn 0.707107 0.000000 -0.707107
vn 0.000000 0.000000 1.000000
vn 0.000000 0.000000 1.000000
vn 0.000000 0.000000 1.000000
vn 0.000000 0.000000 1.000000
vn 0.000000 1.000000 0.000000
vn 0.000000 1.000000 0.000000
vn 0.000000 1.000000 0.000000
vn 0.000000 1.000000 0.000000
vn 0.000000 0.000000 -1.000000
vn 0.000000 0.000000 -1.000000
vn 0.000000 0.000000 -1.000000
vn 0.000000 0.000000 -1.000000
vn 1.000000 0.000000 0.000000
vn 1.000000 0.000000 0.000000
vn 1.000000 0.000000 0.000000
vn 1.000000 0.000000 0.000000
vn -1.000000 0.000000 0.000000
vn -1.000000 0.000000 0.000000
vn -1.000000 0.000000 0.000000
vn -1.000000 0.000000 0.000000
s off
g polySurface1
usemtl initialShadingGroup
f 4/5/1 2/18/2 6/6/3 8/20/4
f 12/11/5 10/24/6 13/12/7 16/23/8
f 7/13/9 5/14/10 15/15/11 14/16/12
f 9/7/13 11/8/14 1/9/15 3/10/16
f 3/1/17 4/5/18 8/20/19 7/2/20 14/3/21 13/21/22 10/22/23 9/4/24
f 1/17/25 2/18/26 4/5/27 3/19/28
f 6/6/29 5/14/30 7/13/31 8/20/32
f 9/7/33 10/24/34 12/11/35 11/8/36
f 13/12/37 14/16/38 15/15/39 16/23/40
f 17/25/41 18/26/42 20/27/43 19/28/44
f 19/28/45 20/27/46 22/29/47 21/30/48
f 21/30/49 22/29/50 24/31/51 23/32/52
f 18/26/53 24/33/54 22/34/55 20/27/56
f 23/35/57 17/25/58 19/28/59 21/36/60
