# This file uses centimeters as units for non-parametric coordinates.

mtllib lv2_5.mtl
g default
v -2.251771 -0.202311 -3.332045
v -2.006254 -0.202311 -2.437387
v -1.738871 -0.202311 -1.464625
v -1.350867 -0.202311 -0.606436
v -0.730136 -0.202311 0.117952
v 0.047441 -0.202311 0.627672
v 0.983065 -0.202311 0.911544
v 2.196982 -0.202311 0.917215
v 3.553536 -0.202311 0.851337
v -2.385481 2.503981 -3.186104
v -2.139964 2.509085 -2.291446
v -1.872581 2.514628 -1.318685
v -1.484577 2.517326 -0.460496
v -0.863846 2.515377 0.263893
v -0.086269 2.509093 0.773613
v 0.849355 2.498350 1.057484
v 2.063272 2.480908 1.063155
v 3.419826 2.460719 0.997277
v -2.179715 4.999515 -3.380339
v -1.934197 5.004619 -2.485682
v -1.666814 5.010162 -1.512920
v -1.278810 5.012860 -0.654731
v -0.658079 5.010911 0.069658
v 0.119498 5.004627 0.579378
v 1.055122 4.993884 0.863249
v 2.269039 4.976442 0.868921
v 3.625593 4.956253 0.803042
v -2.446457 5.004066 -3.307164
v -2.471880 5.013793 -2.338180
v -2.034267 5.016492 -1.405861
v -1.839116 5.024372 -0.299038
v -0.980201 5.019106 0.437387
v -0.209034 5.016088 1.275591
v 0.967401 5.000834 1.451787
v 2.311648 4.984281 1.743917
v 3.662280 4.963002 1.556422
v -2.809223 3.970903 -3.201718
v -2.739033 4.215168 -2.244403
v -2.436518 3.831059 -1.282154
v -2.241069 4.229311 -0.037327
v -1.331377 3.850666 0.830289
v -0.512277 4.223006 1.889354
v 0.860561 3.869271 2.069476
v 2.327933 4.189312 2.639177
v 3.673934 3.835259 2.142034
v -3.057592 2.514256 -3.125248
v -3.218881 2.526455 -2.103086
v -2.680726 2.527385 -1.203862
v -2.663896 2.541020 0.232604
v -1.505111 2.531920 1.019634
v -0.738717 2.533558 2.332597
v 0.806338 2.511116 2.314806
v 2.326451 2.497055 3.127273
v 3.675248 2.472392 2.586756
v -3.259079 -0.202311 -3.055711
v -3.484667 -0.202311 -2.015909
v -2.945490 -0.202311 -1.113072
v -2.900913 -0.202311 0.384669
v -1.698123 -0.202311 1.222992
v -0.876653 -0.202311 2.572102
v 0.735185 -0.202311 2.574612
v 2.302011 -0.202311 3.389407
v 3.650809 -0.202311 2.848890
v -2.755425 -0.202311 -3.193878
v 3.602172 -0.202311 1.850113
v 3.648869 2.465645 1.848959
v -2.732590 2.508442 -3.230018
vt 0.875694 0.912147
vt 0.800351 0.912279
vt 0.717892 0.912922
vt 0.640778 0.915374
vt 0.562454 0.918763
vt 0.486851 0.923970
vt 0.407276 0.931482
vt 0.307894 0.943206
vt 0.197984 0.959710
vt 0.867416 0.689114
vt 0.789925 0.689681
vt 0.706595 0.690188
vt 0.628983 0.691990
vt 0.549946 0.695145
vt 0.473625 0.700154
vt 0.392132 0.707306
vt 0.290293 0.719212
vt 0.173884 0.734701
vt 0.871415 0.485313
vt 0.796665 0.485361
vt 0.711772 0.478772
vt 0.627097 0.477036
vt 0.538812 0.475894
vt 0.451075 0.481631
vt 0.360085 0.489781
vt 0.253174 0.508226
vt 0.140187 0.523945
vt 0.871777 0.463867
vt 0.799994 0.444595
vt 0.716813 0.446542
vt 0.630035 0.423777
vt 0.538419 0.432890
vt 0.445841 0.417826
vt 0.351405 0.437978
vt 0.237271 0.439380
vt 0.130402 0.465049
vt 0.885990 0.380612
vt 0.808701 0.382233
vt 0.735175 0.344170
vt 0.635826 0.352916
vt 0.541360 0.325627
vt 0.440373 0.338824
vt 0.335229 0.331012
vt 0.219296 0.352552
vt 0.108951 0.364306
vt 0.908415 0.266467
vt 0.830468 0.250161
vt 0.751298 0.242040
vt 0.647155 0.223930
vt 0.545896 0.222445
vt 0.436411 0.213292
vt 0.325375 0.224578
vt 0.198058 0.228029
vt 0.089767 0.249850
vt 0.939945 0.057291
vt 0.858881 0.042162
vt 0.777725 0.033801
vt 0.664141 0.018264
vt 0.553666 0.015320
vt 0.433944 0.009151
vt 0.312458 0.018034
vt 0.176785 0.024256
vt 0.065289 0.041620
vt 0.034844 0.971959
vt 0.116456 0.965402
vt 0.038416 0.751547
vt 0.098731 0.744669
vt 0.052771 0.638347
vt 0.079815 0.537336
vt 0.959645 0.903503
vt 0.917734 0.907613
vt 0.922919 0.687616
vt 0.895513 0.688714
vt 0.914020 0.572979
vt 0.893028 0.487783
vn 0.962462 0.061747 -0.264301
vn 0.964272 -0.015882 -0.264439
vn 0.964274 -0.015720 -0.264440
vn 0.962462 0.061747 -0.264301
vn 0.962359 0.061642 -0.264699
vn 0.964163 -0.015870 -0.264837
vn 0.964165 -0.015704 -0.264839
vn 0.962359 0.061642 -0.264699
vn 0.909123 0.066792 -0.411138
vn 0.911114 -0.016472 -0.411826
vn 0.911115 -0.016337 -0.411828
vn 0.909123 0.066792 -0.411138
vn 0.757419 0.072087 -0.648937
vn 0.759196 -0.016540 -0.650652
vn 0.759197 -0.016496 -0.650652
vn 0.757419 0.072087 -0.648937
vn 0.547020 0.071784 -0.834036
vn 0.547975 -0.015303 -0.836355
vn 0.547974 -0.015359 -0.836354
vn 0.547020 0.071784 -0.834036
vn 0.290051 0.065823 -0.954745
vn 0.289995 -0.012833 -0.956942
vn 0.289993 -0.012966 -0.956941
vn 0.290051 0.065823 -0.954745
vn 0.005056 0.054384 -0.998507
vn 0.004335 -0.009286 -0.999948
vn 0.004333 -0.009442 -0.999946
vn 0.005056 0.054384 -0.998507
vn -0.048831 -0.008575 -0.998770
vn -0.048833 -0.008716 -0.998769
vn -0.048054 0.052055 -0.997487
vn -0.048054 0.052055 -0.997487
vn 0.959698 -0.099585 -0.262798
vn 0.959698 -0.099585 -0.262798
vn 0.959587 -0.099607 -0.263194
vn 0.959587 -0.099607 -0.263194
vn 0.906133 -0.106575 -0.409346
vn 0.906133 -0.106575 -0.409346
vn 0.754374 -0.112538 -0.646727
vn 0.754374 -0.112538 -0.646727
vn 0.544308 -0.109614 -0.831693
vn 0.544308 -0.109614 -0.831693
vn 0.287911 -0.097886 -0.952642
vn 0.287911 -0.097886 -0.952642
vn 0.003539 -0.077888 -0.996956
vn 0.003539 -0.077888 -0.996956
vn -0.049465 -0.073449 -0.996072
vn -0.049465 -0.073449 -0.996072
vn 0.014412 0.999849 -0.009659
vn 0.014412 0.999849 -0.009659
vn 0.014412 0.999850 -0.009659
vn 0.014412 0.999849 -0.009659
vn 0.014411 0.999850 -0.009659
vn 0.014411 0.999850 -0.009659
vn 0.014411 0.999850 -0.009659
vn 0.014411 0.999850 -0.009659
vn 0.014411 0.999850 -0.009659
vn 0.014411 0.999850 -0.009659
vn 0.014411 0.999850 -0.009659
vn 0.014411 0.999850 -0.009659
vn 0.014411 0.999850 -0.009659
vn 0.014411 0.999850 -0.009659
vn 0.014411 0.999850 -0.009659
vn 0.014411 0.999850 -0.009659
vn 0.014411 0.999850 -0.009658
vn 0.014411 0.999850 -0.009658
vn 0.014411 0.999850 -0.009658
vn 0.014411 0.999850 -0.009658
vn 0.014411 0.999850 -0.009658
vn 0.014411 0.999850 -0.009658
vn 0.014411 0.999850 -0.009658
vn 0.014411 0.999850 -0.009658
vn 0.014411 0.999850 -0.009659
vn 0.014411 0.999850 -0.009659
vn 0.014411 0.999850 -0.009659
vn 0.014411 0.999850 -0.009659
vn 0.014411 0.999850 -0.009659
vn 0.014411 0.999850 -0.009659
vn 0.014411 0.999850 -0.009659
vn 0.014411 0.999850 -0.009659
vn -0.946135 0.323116 -0.020616
vn -0.965763 0.253158 -0.056678
vn -0.963209 0.263819 -0.051262
vn -0.946135 0.323116 -0.020616
vn -0.854029 0.332041 0.400479
vn -0.860296 0.288539 0.420282
vn -0.862421 0.269178 0.428689
vn -0.854029 0.332041 0.400479
vn -0.917274 0.389044 0.085168
vn -0.959768 0.275090 0.056320
vn -0.953873 0.293932 0.061076
vn -0.917274 0.389044 0.085168
vn -0.546273 0.445919 0.709043
vn -0.568622 0.330760 0.753172
vn -0.572824 0.301083 0.762379
vn -0.546273 0.445919 0.709043
vn -0.711308 0.493946 0.500059
vn -0.796251 0.313725 0.517263
vn -0.788730 0.333493 0.516417
vn -0.711308 0.493946 0.500059
vn -0.038338 0.544341 0.837987
vn -0.031330 0.361916 0.931684
vn -0.030200 0.334105 0.942052
vn -0.038338 0.544341 0.837987
vn -0.293076 0.598993 0.745194
vn -0.385844 0.368696 0.845688
vn -0.382161 0.379939 0.842377
vn -0.293076 0.598993 0.745194
vn 0.339291 0.414645 0.844364
vn 0.343177 0.402074 0.848862
vn 0.274907 0.589187 0.759793
vn 0.274907 0.589187 0.759793
vn -0.980817 0.132083 -0.143358
vn -0.980902 0.127122 -0.147213
vn -0.860152 0.148492 0.487943
vn -0.860483 0.151880 0.486315
vn -0.989996 0.138207 0.028412
vn -0.990683 0.133365 0.027571
vn -0.570499 0.142052 0.808920
vn -0.570949 0.145468 0.807996
vn -0.846680 0.138061 0.513879
vn -0.847751 0.132857 0.513486
vn -0.004636 0.134143 0.990951
vn -0.005516 0.137885 0.990433
vn -0.451719 0.139380 0.881205
vn -0.453101 0.134364 0.881275
vn 0.375460 0.152543 0.914199
vn 0.375793 0.159174 0.912931
vn -0.979712 0.078767 -0.184285
vn -0.979712 0.078767 -0.184285
vn -0.854062 0.099658 0.510535
vn -0.854062 0.099658 0.510535
vn -0.995533 0.092179 0.020407
vn -0.995533 0.092179 0.020407
vn -0.563993 0.097485 0.820005
vn -0.563993 0.097485 0.820005
vn -0.855126 0.093027 0.510005
vn -0.855126 0.093027 0.510005
vn 0.005468 0.091037 0.995833
vn 0.005468 0.091037 0.995833
vn -0.463961 0.093141 0.880946
vn -0.463961 0.093141 0.880946
vn 0.371262 0.086809 0.924461
vn 0.371262 0.086809 0.924461
vn 0.998952 -0.015424 -0.043092
vn 0.999055 -0.013733 -0.041229
vn 0.999034 -0.014086 -0.041618
vn 0.998952 -0.015424 -0.043092
vn 0.988719 0.020169 -0.148421
vn 0.987803 -0.015492 -0.154936
vn 0.987858 -0.014222 -0.154708
vn 0.988719 0.020169 -0.148421
vn 0.999247 -0.010279 -0.037424
vn 0.999247 -0.010279 -0.037424
vn 0.984916 -0.059091 -0.162631
vn 0.984916 -0.059091 -0.162631
vn -0.281367 -0.007055 -0.959574
vn -0.285795 -0.004100 -0.958282
vn -0.286459 -0.003657 -0.958086
vn -0.281367 -0.007055 -0.959574
vn -0.110002 0.017892 -0.993770
vn -0.086351 -0.008028 -0.996233
vn -0.085438 -0.009026 -0.996303
vn -0.110002 0.017892 -0.993770
vn -0.296332 0.002954 -0.955080
vn -0.296332 0.002954 -0.955080
vn -0.048281 -0.049484 -0.997607
vn -0.048281 -0.049484 -0.997607
s 1
g pCube1
usemtl initialShadingGroup
f 1/1/1 10/10/2 11/11/3 2/2/4
s 2
f 2/2/5 11/11/6 12/12/7 3/3/8
s 3
f 3/3/9 12/12/10 13/13/11 4/4/12
s 4
f 4/4/13 13/13/14 14/14/15 5/5/16
s 5
f 5/5/17 14/14/18 15/15/19 6/6/20
s 6
f 6/6/21 15/15/22 16/16/23 7/7/24
s 7
f 7/7/25 16/16/26 17/17/27 8/8/28
s 8
f 17/17/29 18/18/30 9/9/31 8/8/32
s 1
f 10/10/2 19/19/33 20/20/34 11/11/3
s 2
f 11/11/6 20/20/35 21/21/36 12/12/7
s 3
f 12/12/10 21/21/37 22/22/38 13/13/11
s 4
f 13/13/14 22/22/39 23/23/40 14/14/15
s 5
f 14/14/18 23/23/41 24/24/42 15/15/19
s 6
f 15/15/22 24/24/43 25/25/44 16/16/23
s 7
f 16/16/26 25/25/45 26/26/46 17/17/27
s 8
f 26/26/47 27/27/48 18/18/30 17/17/29
s off
f 19/19/49 28/28/50 29/29/51 20/20/52
f 20/20/53 29/29/54 30/30/55 21/21/56
f 21/21/57 30/30/58 31/31/59 22/22/60
f 22/22/61 31/31/62 32/32/63 23/23/64
f 23/23/65 32/32/66 33/33/67 24/24/68
f 24/24/69 33/33/70 34/34/71 25/25/72
f 25/25/73 34/34/74 35/35/75 26/26/76
f 35/35/77 36/36/78 27/27/79 26/26/80
s 9
f 28/28/81 37/37/82 38/38/83 29/29/84
s 10
f 29/29/85 38/38/86 39/39/87 30/30/88
s 11
f 30/30/89 39/39/90 40/40/91 31/31/92
s 12
f 31/31/93 40/40/94 41/41/95 32/32/96
s 13
f 32/32/97 41/41/98 42/42/99 33/33/100
s 14
f 33/33/101 42/42/102 43/43/103 34/34/104
s 15
f 34/34/105 43/43/106 44/44/107 35/35/108
s 16
f 44/44/109 45/45/110 36/36/111 35/35/112
s 9
f 37/37/82 46/46/113 47/47/114 38/38/83
s 10
f 38/38/86 47/47/115 48/48/116 39/39/87
s 11
f 39/39/90 48/48/117 49/49/118 40/40/91
s 12
f 40/40/94 49/49/119 50/50/120 41/41/95
s 13
f 41/41/98 50/50/121 51/51/122 42/42/99
s 14
f 42/42/102 51/51/123 52/52/124 43/43/103
s 15
f 43/43/106 52/52/125 53/53/126 44/44/107
s 16
f 53/53/127 54/54/128 45/45/110 44/44/109
s 9
f 46/46/113 55/55/129 56/56/130 47/47/114
s 10
f 47/47/115 56/56/131 57/57/132 48/48/116
s 11
f 48/48/117 57/57/133 58/58/134 49/49/118
s 12
f 49/49/119 58/58/135 59/59/136 50/50/120
s 13
f 50/50/121 59/59/137 60/60/138 51/51/122
s 14
f 51/51/123 60/60/139 61/61/140 52/52/124
s 15
f 52/52/125 61/61/141 62/62/142 53/53/126
s 16
f 62/62/143 63/63/144 54/54/128 53/53/127
s 17
f 65/65/145 66/67/146 54/66/147 63/64/148
s 18
f 9/9/149 18/18/150 66/67/151 65/65/152
s 17
f 66/67/146 36/69/153 45/68/154 54/66/147
s 18
f 18/18/150 27/27/155 36/69/156 66/67/151
s 19
f 55/70/157 46/72/158 67/73/159 64/71/160
s 20
f 64/71/161 67/73/162 10/10/163 1/1/164
s 19
f 46/72/158 37/74/165 28/75/166 67/73/159
s 20
f 67/73/162 28/75/167 19/19/168 10/10/163
