# This file uses centimeters as units for non-parametric coordinates.

mtllib lv2_3.mtl
g default
v -0.824912 -0.275818 0.834083
v 0.824912 -0.275818 0.834083
v -1.038205 0.709937 1.038205
v 1.038205 0.709937 1.038205
v -0.887943 1.419873 0.897816
v 0.887943 1.419873 0.897816
v -1.114614 2.129810 1.114614
v 1.114614 2.129810 1.114614
v -0.950974 2.839747 0.961547
v 0.950974 2.839747 0.961547
v -1.191024 3.549684 1.191024
v 1.191024 3.549684 1.191024
v -1.014006 4.259621 1.025280
v 1.014006 4.259621 1.025280
v -1.267434 4.969558 1.267434
v 1.267434 4.969558 1.267434
v -1.077037 5.679494 1.089012
v 1.077037 5.679494 1.089012
v -1.343843 6.389431 1.343843
v 1.343843 6.389431 1.343843
v -1.140068 7.099368 1.152744
v 1.140068 7.099368 1.152744
v -1.420253 7.809305 1.420253
v 1.420253 7.809305 1.420253
v -1.203099 8.519241 1.216476
v 1.203099 8.519241 1.216476
v -1.496663 9.229177 1.496663
v 1.496663 9.229177 1.496663
v -1.266131 9.939116 1.280208
v 1.266131 9.939116 1.280208
v -1.266131 9.939116 -1.280208
v 1.266131 9.939116 -1.280208
v -1.496663 9.229178 -1.496663
v 1.496663 9.229178 -1.496663
v -1.203099 8.519242 -1.216476
v 1.203099 8.519242 -1.216476
v -1.420253 7.809305 -1.420253
v 1.420253 7.809305 -1.420253
v -1.140068 7.099368 -1.152744
v 1.140068 7.099368 -1.152744
v -1.343843 6.389431 -1.343843
v 1.343843 6.389431 -1.343843
v -1.077037 5.679495 -1.089012
v 1.077037 5.679495 -1.089012
v -1.267434 4.969558 -1.267434
v 1.267434 4.969558 -1.267434
v -1.014006 4.259621 -1.025280
v 1.014006 4.259621 -1.025280
v -1.191024 3.549684 -1.191024
v 1.191024 3.549684 -1.191024
v -0.950974 2.839747 -0.961547
v 0.950974 2.839747 -0.961547
v -1.114614 2.129811 -1.114614
v 1.114614 2.129811 -1.114614
v -0.887943 1.419874 -0.897816
v 0.887943 1.419874 -0.897816
v -1.038205 0.709938 -1.038205
v 1.038205 0.709938 -1.038205
v -0.824912 -0.275818 -0.834083
v 0.824912 -0.275818 -0.834083
v 0.071008 9.928151 0.672231
v 0.559783 9.928151 0.672231
v -0.033685 10.270310 0.776924
v 0.664476 10.270310 0.776924
v -0.033685 10.270310 0.078763
v 0.664476 10.270310 0.078763
v 0.071008 9.928151 0.183456
v 0.559783 9.928151 0.183456
vt 0.266852 0.052959
vt 0.387550 0.059402
vt 0.258235 0.122218
vt 0.387885 0.128929
vt 0.254000 0.172509
vt 0.387617 0.178974
vt 0.248552 0.225549
vt 0.387978 0.231818
vt 0.244832 0.276978
vt 0.387667 0.282800
vt 0.239968 0.330836
vt 0.388145 0.336422
vt 0.236765 0.382656
vt 0.387840 0.387651
vt 0.232619 0.436560
vt 0.388390 0.441271
vt 0.229907 0.488456
vt 0.388197 0.492332
vt 0.226471 0.541826
vt 0.388908 0.545494
vt 0.224397 0.593190
vt 0.388764 0.595678
vt 0.221626 0.645738
vt 0.389841 0.647989
vt 0.220167 0.696011
vt 0.389867 0.697018
vt 0.218224 0.747069
vt 0.391418 0.747661
vt 0.217255 0.795835
vt 0.392004 0.795445
vt 0.736124 0.787786
vt 0.393612 0.977181
vt 0.750252 0.736216
vt 0.560482 0.742615
vt 0.727694 0.683766
vt 0.559123 0.692358
vt 0.740013 0.630908
vt 0.556333 0.642991
vt 0.716732 0.578244
vt 0.554041 0.590725
vt 0.727329 0.524585
vt 0.550729 0.540078
vt 0.703568 0.471744
vt 0.547767 0.486880
vt 0.712337 0.417467
vt 0.543986 0.435507
vt 0.688284 0.364706
vt 0.540384 0.381605
vt 0.695325 0.310274
vt 0.536251 0.330290
vt 0.671133 0.257957
vt 0.531969 0.276333
vt 0.676404 0.203780
vt 0.527506 0.225262
vt 0.652302 0.152222
vt 0.522646 0.172112
vt 0.655860 0.098567
vt 0.517739 0.122057
vt 0.627561 0.029222
vt 0.509657 0.052559
vt 0.215511 0.977302
vt 0.434588 0.868819
vt 0.458579 0.848504
vt 0.592616 0.871069
vt 0.569213 0.850078
vt 0.587010 0.812903
vt 0.482880 0.960120
vt 0.618036 0.817968
vt 0.541746 0.960958
vt 0.483718 0.901255
vt 0.542583 0.902093
vt 0.534185 0.871798
vt 0.492974 0.871211
vt 0.040015 0.793911
vt 0.562653 0.790333
vt 0.148084 0.029406
vt 0.120216 0.098418
vt 0.122854 0.152576
vt 0.099409 0.204053
vt 0.103852 0.258780
vt 0.080448 0.311167
vt 0.086743 0.366206
vt 0.063577 0.419184
vt 0.071675 0.474097
vt 0.048889 0.527298
vt 0.058856 0.581624
vt 0.036559 0.634812
vt 0.048257 0.688392
vt 0.026590 0.741468
vn 0.000000 -0.202770 0.979227
vn 0.000000 -0.202770 0.979227
vn 0.000000 -0.202770 0.979227
vn 0.000000 -0.202770 0.979227
vn 0.000000 0.193992 0.981003
vn 0.000000 0.193992 0.981003
vn 0.000000 0.193992 0.981003
vn 0.000000 0.193992 0.981003
vn 0.000000 -0.292063 0.956399
vn 0.000000 -0.292063 0.956399
vn 0.000000 -0.292063 0.956399
vn 0.000000 -0.292063 0.956399
vn 0.000000 0.210763 0.977537
vn 0.000000 0.210763 0.977537
vn 0.000000 0.210763 0.977537
vn 0.000000 0.210763 0.977537
vn 0.000000 -0.307567 0.951527
vn 0.000000 -0.307567 0.951527
vn 0.000000 -0.307567 0.951527
vn 0.000000 -0.307567 0.951527
vn 0.000000 0.227350 0.973813
vn 0.000000 0.227350 0.973813
vn 0.000000 0.227350 0.973813
vn 0.000000 0.227350 0.973813
vn 0.000000 -0.322829 0.946457
vn 0.000000 -0.322829 0.946457
vn 0.000000 -0.322829 0.946457
vn 0.000000 -0.322829 0.946457
vn 0.000000 0.243741 0.969840
vn 0.000000 0.243741 0.969840
vn 0.000000 0.243741 0.969840
vn 0.000000 0.243741 0.969840
vn 0.000000 -0.337844 0.941202
vn 0.000000 -0.337844 0.941202
vn 0.000000 -0.337844 0.941202
vn 0.000000 -0.337844 0.941202
vn 0.000000 0.259927 0.965628
vn 0.000000 0.259927 0.965628
vn 0.000000 0.259927 0.965628
vn 0.000000 0.259927 0.965628
vn 0.000000 -0.352605 0.935772
vn 0.000000 -0.352605 0.935772
vn 0.000000 -0.352605 0.935772
vn 0.000000 -0.352605 0.935772
vn 0.000000 0.275896 0.961188
vn 0.000000 0.275896 0.961188
vn 0.000000 0.275896 0.961188
vn 0.000000 0.275896 0.961188
vn 0.000000 -0.367109 0.930178
vn 0.000000 -0.367109 0.930178
vn 0.000000 -0.367109 0.930178
vn 0.000000 -0.367109 0.930178
vn 0.000000 0.291639 0.956529
vn 0.000000 0.291639 0.956529
vn 0.000000 0.291639 0.956529
vn 0.000000 0.291639 0.956529
vn 0.000000 1.000000 0.000000
vn 0.000000 1.000000 0.000000
vn 0.000000 1.000000 0.000000
vn 0.000000 1.000000 0.000000
vn 0.000000 0.291639 -0.956528
vn 0.000000 0.291639 -0.956528
vn 0.000000 0.291639 -0.956528
vn 0.000000 0.291639 -0.956528
vn 0.000000 -0.367109 -0.930178
vn 0.000000 -0.367109 -0.930178
vn 0.000000 -0.367109 -0.930178
vn 0.000000 -0.367109 -0.930178
vn 0.000000 0.275895 -0.961188
vn 0.000000 0.275895 -0.961188
vn 0.000000 0.275895 -0.961188
vn 0.000000 0.275895 -0.961188
vn 0.000000 -0.352606 -0.935772
vn 0.000000 -0.352606 -0.935772
vn 0.000000 -0.352606 -0.935772
vn 0.000000 -0.352606 -0.935772
vn 0.000000 0.259927 -0.965628
vn 0.000000 0.259927 -0.965628
vn 0.000000 0.259927 -0.965628
vn 0.000000 0.259927 -0.965628
vn 0.000000 -0.337844 -0.941202
vn 0.000000 -0.337844 -0.941202
vn 0.000000 -0.337844 -0.941202
vn 0.000000 -0.337844 -0.941202
vn 0.000000 0.243741 -0.969840
vn 0.000000 0.243741 -0.969840
vn 0.000000 0.243741 -0.969840
vn 0.000000 0.243741 -0.969840
vn 0.000000 -0.322830 -0.946457
vn 0.000000 -0.322830 -0.946457
vn 0.000000 -0.322830 -0.946457
vn 0.000000 -0.322830 -0.946457
vn 0.000000 0.227350 -0.973813
vn 0.000000 0.227350 -0.973813
vn 0.000000 0.227350 -0.973813
vn 0.000000 0.227350 -0.973813
vn 0.000000 -0.307567 -0.951527
vn 0.000000 -0.307567 -0.951527
vn 0.000000 -0.307567 -0.951526
vn 0.000000 -0.307567 -0.951526
vn 0.000000 0.210763 -0.977537
vn 0.000000 0.210763 -0.977537
vn 0.000000 0.210763 -0.977537
vn 0.000000 0.210763 -0.977537
vn 0.000000 -0.292063 -0.956399
vn 0.000000 -0.292063 -0.956399
vn 0.000000 -0.292063 -0.956399
vn 0.000000 -0.292063 -0.956399
vn 0.000000 0.193992 -0.981003
vn 0.000000 0.193992 -0.981003
vn 0.000000 0.193992 -0.981003
vn 0.000000 0.193992 -0.981003
vn 0.000000 -0.202769 -0.979227
vn 0.000000 -0.202769 -0.979227
vn 0.000000 -0.202769 -0.979227
vn 0.000000 -0.202769 -0.979227
vn 0.977382 -0.211481 -0.000000
vn 0.977382 -0.211481 -0.000000
vn 0.977382 -0.211481 -0.000000
vn 0.977382 -0.211481 -0.000000
vn 0.978327 0.207068 0.000000
vn 0.978327 0.207068 0.000000
vn 0.978327 0.207068 0.000000
vn 0.978327 0.207068 0.000000
vn 0.952622 -0.304157 -0.000000
vn 0.952622 -0.304157 -0.000000
vn 0.952622 -0.304157 -0.000000
vn 0.952622 -0.304157 -0.000000
vn 0.974449 0.224610 0.000000
vn 0.974449 0.224610 0.000000
vn 0.974449 0.224610 0.000000
vn 0.974449 0.224610 0.000000
vn 0.947312 -0.320313 -0.000000
vn 0.947312 -0.320313 -0.000000
vn 0.947312 -0.320313 -0.000000
vn 0.947312 -0.320313 -0.000000
vn 0.970292 0.241936 0.000000
vn 0.970292 0.241936 0.000000
vn 0.970292 0.241936 0.000000
vn 0.970292 0.241936 0.000000
vn 0.941793 -0.336194 0.000000
vn 0.941793 -0.336194 0.000000
vn 0.941793 -0.336194 0.000000
vn 0.941793 -0.336194 0.000000
vn 0.965868 0.259034 0.000000
vn 0.965868 0.259034 0.000000
vn 0.965868 0.259034 0.000000
vn 0.965868 0.259034 0.000000
vn 0.936078 -0.351794 0.000000
vn 0.936078 -0.351794 0.000000
vn 0.936078 -0.351794 0.000000
vn 0.936078 -0.351794 0.000000
vn 0.961188 0.275893 0.000000
vn 0.961188 0.275893 0.000000
vn 0.961188 0.275893 0.000000
vn 0.961188 0.275893 0.000000
vn 0.930179 -0.367106 0.000000
vn 0.930179 -0.367106 0.000000
vn 0.930179 -0.367106 0.000000
vn 0.930179 -0.367106 0.000000
vn 0.956266 0.292500 0.000000
vn 0.956266 0.292500 0.000000
vn 0.956266 0.292500 0.000000
vn 0.956266 0.292500 0.000000
vn 0.924110 -0.382126 -0.000000
vn 0.924110 -0.382126 -0.000000
vn 0.924110 -0.382126 -0.000000
vn 0.924110 -0.382126 -0.000000
vn 0.951112 0.308846 0.000000
vn 0.951112 0.308846 0.000000
vn 0.951112 0.308846 0.000000
vn 0.951112 0.308846 0.000000
vn -0.977382 -0.211481 -0.000000
vn -0.977382 -0.211481 -0.000000
vn -0.977382 -0.211481 -0.000000
vn -0.977382 -0.211481 -0.000000
vn -0.978327 0.207068 0.000000
vn -0.978327 0.207068 0.000000
vn -0.978327 0.207068 0.000000
vn -0.978327 0.207068 0.000000
vn -0.952622 -0.304157 -0.000000
vn -0.952622 -0.304157 -0.000000
vn -0.952622 -0.304157 -0.000000
vn -0.952622 -0.304157 -0.000000
vn -0.974449 0.224610 0.000000
vn -0.974449 0.224610 0.000000
vn -0.974449 0.224610 0.000000
vn -0.974449 0.224610 0.000000
vn -0.947312 -0.320313 -0.000000
vn -0.947312 -0.320313 -0.000000
vn -0.947312 -0.320313 -0.000000
vn -0.947312 -0.320313 -0.000000
vn -0.970292 0.241936 0.000000
vn -0.970292 0.241936 0.000000
vn -0.970292 0.241936 0.000000
vn -0.970292 0.241936 0.000000
vn -0.941793 -0.336194 0.000000
vn -0.941793 -0.336194 0.000000
vn -0.941793 -0.336194 0.000000
vn -0.941793 -0.336194 0.000000
vn -0.965868 0.259034 0.000000
vn -0.965868 0.259034 0.000000
vn -0.965868 0.259034 0.000000
vn -0.965868 0.259034 0.000000
vn -0.936078 -0.351794 0.000000
vn -0.936078 -0.351794 0.000000
vn -0.936078 -0.351794 0.000000
vn -0.936078 -0.351794 0.000000
vn -0.961188 0.275893 0.000000
vn -0.961188 0.275893 0.000000
vn -0.961188 0.275893 0.000000
vn -0.961188 0.275893 0.000000
vn -0.930179 -0.367106 0.000000
vn -0.930179 -0.367106 0.000000
vn -0.930179 -0.367106 0.000000
vn -0.930179 -0.367106 0.000000
vn -0.956265 0.292500 0.000000
vn -0.956266 0.292500 0.000000
vn -0.956266 0.292500 0.000000
vn -0.956266 0.292500 0.000000
vn -0.924110 -0.382126 -0.000000
vn -0.924110 -0.382126 -0.000000
vn -0.924110 -0.382126 -0.000000
vn -0.924110 -0.382126 -0.000000
vn -0.951112 0.308846 0.000000
vn -0.951112 0.308846 0.000000
vn -0.951112 0.308846 0.000000
vn -0.951112 0.308846 0.000000
vn 0.000000 -0.292589 0.956238
vn 0.000000 -0.292589 0.956238
vn 0.000000 -0.292589 0.956238
vn 0.000000 -0.292589 0.956238
vn 0.000000 1.000000 0.000000
vn 0.000000 1.000000 0.000000
vn 0.000000 1.000000 0.000000
vn 0.000000 1.000000 0.000000
vn 0.000000 -0.292589 -0.956238
vn 0.000000 -0.292589 -0.956238
vn 0.000000 -0.292589 -0.956238
vn 0.000000 -0.292589 -0.956238
vn 0.956238 -0.292589 0.000000
vn 0.956238 -0.292589 0.000000
vn 0.956239 -0.292589 0.000000
vn 0.956239 -0.292589 0.000000
vn -0.956238 -0.292589 0.000000
vn -0.956238 -0.292589 0.000000
vn -0.956238 -0.292589 0.000000
vn -0.956238 -0.292589 0.000000
s off
g polySurface1
usemtl initialShadingGroup
f 1/1/1 2/2/2 4/4/3 3/3/4
f 3/3/5 4/4/6 6/6/7 5/5/8
f 5/5/9 6/6/10 8/8/11 7/7/12
f 7/7/13 8/8/14 10/10/15 9/9/16
f 9/9/17 10/10/18 12/12/19 11/11/20
f 11/11/21 12/12/22 14/14/23 13/13/24
f 13/13/25 14/14/26 16/16/27 15/15/28
f 15/15/29 16/16/30 18/18/31 17/17/32
f 17/17/33 18/18/34 20/20/35 19/19/36
f 19/19/37 20/20/38 22/22/39 21/21/40
f 21/21/41 22/22/42 24/24/43 23/23/44
f 23/23/45 24/24/46 26/26/47 25/25/48
f 25/25/49 26/26/50 28/28/51 27/27/52
f 27/27/53 28/28/54 30/30/55 29/29/56
f 29/29/57 30/30/58 32/32/59 31/61/60
f 31/31/61 32/75/62 34/34/63 33/33/64
f 33/33/65 34/34/66 36/36/67 35/35/68
f 35/35/69 36/36/70 38/38/71 37/37/72
f 37/37/73 38/38/74 40/40/75 39/39/76
f 39/39/77 40/40/78 42/42/79 41/41/80
f 41/41/81 42/42/82 44/44/83 43/43/84
f 43/43/85 44/44/86 46/46/87 45/45/88
f 45/45/89 46/46/90 48/48/91 47/47/92
f 47/47/93 48/48/94 50/50/95 49/49/96
f 49/49/97 50/50/98 52/52/99 51/51/100
f 51/51/101 52/52/102 54/54/103 53/53/104
f 53/53/105 54/54/106 56/56/107 55/55/108
f 55/55/109 56/56/110 58/58/111 57/57/112
f 57/57/113 58/58/114 60/60/115 59/59/116
f 2/2/117 60/60/118 58/58/119 4/4/120
f 4/4/121 58/58/122 56/56/123 6/6/124
f 6/6/125 56/56/126 54/54/127 8/8/128
f 8/8/129 54/54/130 52/52/131 10/10/132
f 10/10/133 52/52/134 50/50/135 12/12/136
f 12/12/137 50/50/138 48/48/139 14/14/140
f 14/14/141 48/48/142 46/46/143 16/16/144
f 16/16/145 46/46/146 44/44/147 18/18/148
f 18/18/149 44/44/150 42/42/151 20/20/152
f 20/20/153 42/42/154 40/40/155 22/22/156
f 22/22/157 40/40/158 38/38/159 24/24/160
f 24/24/161 38/38/162 36/36/163 26/26/164
f 26/26/165 36/36/166 34/34/167 28/28/168
f 28/28/169 34/34/170 32/75/171 30/30/172
f 59/76/173 1/1/174 3/3/175 57/77/176
f 57/77/177 3/3/178 5/5/179 55/78/180
f 55/78/181 5/5/182 7/7/183 53/79/184
f 53/79/185 7/7/186 9/9/187 51/80/188
f 51/80/189 9/9/190 11/11/191 49/81/192
f 49/81/193 11/11/194 13/13/195 47/82/196
f 47/82/197 13/13/198 15/15/199 45/83/200
f 45/83/201 15/15/202 17/17/203 43/84/204
f 43/84/205 17/17/206 19/19/207 41/85/208
f 41/85/209 19/19/210 21/21/211 39/86/212
f 39/86/213 21/21/214 23/23/215 37/87/216
f 37/87/217 23/23/218 25/25/219 35/88/220
f 35/88/221 25/25/222 27/27/223 33/89/224
f 33/89/225 27/27/226 29/29/227 31/74/228
f 61/73/229 62/72/230 64/71/231 63/70/232
f 63/70/233 64/71/234 66/69/235 65/67/236
f 65/68/237 66/64/238 68/65/239 67/66/240
f 62/72/241 68/65/242 66/64/243 64/71/244
f 67/63/245 61/73/246 63/70/247 65/62/248
