# This file uses centimeters as units for non-parametric coordinates.

mtllib lv3_5.mtl
g default
v 0.245026 -0.310795 -0.607768
v -0.104184 -0.310795 -0.607768
v -0.104184 -0.310795 0.607768
v 0.245026 -0.310795 0.607768
v 0.413173 16.994991 -1.024424
v -0.052735 18.716881 -1.149757
v -0.052735 18.716881 1.149757
v 0.413173 16.994991 1.024424
v 0.685231 -0.310795 -0.640318
v 0.256334 -0.310795 -0.999025
v 0.432232 16.994991 -1.683908
v 1.269533 16.432003 -1.079288
v 0.256334 -0.310795 0.999025
v 0.685231 -0.310795 0.640318
v 1.269533 16.432003 1.079289
v 0.432232 16.994991 1.683908
v 0.893283 -0.310795 0.000000
v 1.620215 16.432003 0.000000
v -0.115492 -0.310795 -0.999025
v -0.913171 -0.310795 -0.640318
v -1.625874 19.283279 -1.211335
v -0.074126 18.716881 -1.889926
v -1.121223 -0.310795 0.000000
v -2.101338 19.283279 -0.000000
v -0.913171 -0.310795 0.640318
v -1.625873 19.283279 1.211335
v -0.115492 -0.310795 0.999025
v -0.074126 18.716881 1.889925
v -0.052735 18.716881 -0.000000
v 0.413173 16.994991 -0.000000
v 0.413173 16.994991 -0.633129
v -0.052735 18.716881 -0.710589
v 0.413173 16.994991 0.633129
v -0.052735 18.716881 0.710589
v -2.127205 23.233589 -1.613000
v -2.651300 23.233589 0.000000
v -1.722226 23.233589 -0.000000
v -1.375568 23.233589 -1.066905
v -0.192615 23.233589 -1.726287
v -0.221100 23.233589 -2.516605
v -0.192615 23.233589 -1.066905
v -0.192615 23.233591 -0.000000
v -2.127204 23.233589 1.613001
v -1.375568 23.233589 1.066905
v -0.192615 23.233589 1.066903
v -0.192615 23.233589 1.726287
v -0.221099 23.233589 2.516605
v 0.214330 4.914087 1.081981
v 0.202083 4.914087 0.658235
v -0.044262 5.165943 0.663535
v -0.056607 5.165943 1.090693
v -0.986503 5.699025 0.699072
v -1.213646 5.699025 0.000000
v -0.986503 5.699025 -0.699072
v -0.056607 5.165943 -1.090693
v -0.044262 5.165943 -0.663535
v 0.202083 4.914087 -0.658235
v 0.214330 4.914087 -1.081981
v 0.696981 4.795564 -0.693488
v 0.922309 4.795564 0.000000
v 0.696981 4.795564 0.693488
v 0.326091 11.649687 0.752214
v 0.090058 12.442660 0.791193
v 0.075338 12.442660 1.300532
v -1.215779 12.975742 0.833567
v -1.548029 13.075696 -0.000000
v -1.215779 12.975742 -0.833567
v 0.075338 12.442660 -1.300532
v 0.090058 12.442660 -0.791193
v 0.326091 11.649687 -0.752214
v 0.340086 11.649687 -1.236458
v 0.875174 11.383008 -0.792499
v 1.132673 11.205223 0.000000
v 0.875174 11.383008 0.792500
v 0.340086 11.649687 1.236459
v 1.138947 19.968048 -0.874822
v 0.539394 19.968048 -1.415491
v 1.755261 19.968048 -1.322600
v 0.562750 19.968048 -2.063522
v 0.539394 19.968048 -0.874822
v 1.138947 19.968048 0.874821
v 1.755260 19.968048 1.322599
v 0.539394 19.968048 1.415491
v 0.562751 19.968048 2.063521
v 0.539394 19.968048 0.874821
v 1.423194 19.968048 -0.000000
v 0.539394 19.968048 -0.000000
v 2.184999 19.968048 -0.000000
vt 0.156337 0.011040
vt 0.182204 0.010920
vt 0.184528 0.242181
vt 0.156272 0.242436
vt 0.190329 0.522385
vt 0.155750 0.527005
vt 0.127973 0.242117
vt 0.130479 0.010902
vt 0.205541 0.766937
vt 0.154999 0.768736
vt 0.121195 0.522218
vt 0.219128 0.920849
vt 0.154439 0.922985
vt 0.104475 0.766600
vt 0.089768 0.920389
vt 0.723493 0.010400
vt 0.747539 0.010452
vt 0.747537 0.193223
vt 0.721415 0.193047
vt 0.771586 0.010400
vt 0.773668 0.193051
vt 0.747539 0.423918
vt 0.717497 0.429733
vt 0.703495 0.010272
vt 0.699130 0.196873
vt 0.791584 0.010272
vt 0.795948 0.196871
vt 0.777583 0.429731
vt 0.747541 0.613089
vt 0.706731 0.611596
vt 0.692089 0.437964
vt 0.802990 0.437964
vt 0.788347 0.611596
vt 0.747540 0.741600
vt 0.698308 0.739413
vt 0.667696 0.627382
vt 0.827384 0.627382
vt 0.796771 0.739413
vt 0.648906 0.732192
vt 0.846173 0.732192
vt 0.855445 0.210915
vt 0.864383 0.201766
vt 0.215815 0.010369
vt 0.222680 0.220590
vt 0.865950 0.011968
vt 0.241585 0.498356
vt 0.374045 0.011602
vt 0.267695 0.737487
vt 0.298757 0.908620
vt 0.359864 0.011592
vt 0.855117 0.703235
vt 0.089900 0.220456
vt 0.096867 0.010334
vt 0.872071 0.640598
vt 0.860336 0.475256
vt 0.070077 0.497961
vt 0.868929 0.446447
vt 0.042543 0.736747
vt 0.853279 0.011968
vt 0.010241 0.907585
vt 0.919480 0.159568
vt 0.900441 0.100972
vt 0.934192 0.100972
vt 0.946786 0.139730
vt 0.919480 0.042375
vt 0.946786 0.062214
vt 0.989759 0.139730
vt 0.989759 0.100972
vt 0.989759 0.163684
vt 0.988725 0.192394
vt 0.989759 0.038260
vt 0.988725 0.009550
vt 0.989759 0.062214
vt 0.529318 0.200745
vt 0.532329 0.010941
vt 0.546544 0.010943
vt 0.544713 0.200742
vt 0.523703 0.445438
vt 0.541296 0.445430
vt 0.507463 0.639612
vt 0.531422 0.639597
vt 0.517209 0.747619
vt 0.493661 0.747647
vt 0.545631 0.639597
vt 0.536847 0.747627
vt 0.568623 0.639598
vt 0.568623 0.747634
vt 0.591614 0.639597
vt 0.600398 0.747627
vt 0.605824 0.639597
vt 0.620036 0.747619
vt 0.629783 0.639612
vt 0.643584 0.747647
vt 0.595949 0.445430
vt 0.613542 0.445438
vt 0.607927 0.200745
vt 0.592533 0.200742
vt 0.604916 0.010941
vt 0.590701 0.010943
vt 0.900441 0.281450
vt 0.922222 0.261809
vt 0.944611 0.278076
vt 0.901290 0.304992
vt 0.900441 0.261809
vt 0.932548 0.230029
vt 0.960222 0.230029
vt 0.900441 0.230029
vt 0.922222 0.198249
vt 0.944611 0.181982
vt 0.900441 0.198249
vt 0.900441 0.178608
vt 0.901290 0.155066
vt 0.895654 0.009803
vt 0.893477 0.208760
vt 0.884528 0.199610
vt 0.882968 0.009803
vt 0.888598 0.473105
vt 0.880023 0.444298
vt 0.893785 0.701032
vt 0.876860 0.638480
vt 0.418237 0.011602
vt 0.432418 0.011592
vt 0.435738 0.210425
vt 0.420287 0.210431
vt 0.443326 0.474869
vt 0.424862 0.474858
vt 0.464570 0.703436
vt 0.437740 0.703466
vt 0.487273 0.866794
vt 0.458669 0.866807
vt 0.421863 0.703519
vt 0.434809 0.866855
vt 0.419060 0.638917
vt 0.433217 0.638928
vt 0.396141 0.703522
vt 0.396141 0.866850
vt 0.396141 0.638975
vt 0.370419 0.703519
vt 0.357473 0.866855
vt 0.373222 0.638917
vt 0.354542 0.703466
vt 0.333613 0.866807
vt 0.359065 0.638928
vt 0.327712 0.703436
vt 0.305009 0.866794
vt 0.348955 0.474869
vt 0.367420 0.474858
vt 0.356544 0.210425
vt 0.371995 0.210431
vn 0.633272 -0.008342 -0.773885
vn 0.633272 -0.008342 -0.773885
vn 0.628732 -0.021848 -0.777315
vn 0.629563 -0.019405 -0.776707
vn -0.950955 -0.014624 0.308984
vn -0.950955 -0.014624 0.308984
vn -0.944411 -0.029108 0.327477
vn -0.944401 -0.029128 0.327503
vn 0.633272 -0.008342 0.773885
vn 0.633272 -0.008342 0.773885
vn 0.629563 -0.019405 0.776707
vn 0.628732 -0.021848 0.777316
vn 0.951043 -0.005406 0.309012
vn 0.951043 -0.005406 0.309012
vn 0.950221 -0.020329 0.310912
vn 0.950221 -0.020342 0.310913
vn 0.951043 -0.005406 -0.309013
vn 0.951043 -0.005406 -0.309013
vn 0.950220 -0.020342 -0.310914
vn 0.950221 -0.020329 -0.310912
vn -0.378256 -0.021527 0.925451
vn -0.401583 -0.012497 0.915737
vn -0.401583 -0.012497 0.915737
vn -0.387220 -0.018072 0.921810
vn -0.378256 -0.021528 -0.925451
vn -0.387220 -0.018072 -0.921810
vn -0.401584 -0.012497 -0.915737
vn -0.401584 -0.012497 -0.915737
vn -0.944401 -0.029128 -0.327502
vn -0.944411 -0.029108 -0.327477
vn -0.950955 -0.014624 -0.308984
vn -0.950955 -0.014624 -0.308984
vn 0.000000 1.000000 0.000001
vn 0.000000 1.000000 0.000000
vn -0.000000 1.000000 -0.000000
vn -0.000000 1.000000 0.000000
vn -0.999556 0.007283 -0.028888
vn -0.999547 -0.008494 -0.028887
vn -0.999547 -0.008494 -0.028887
vn -0.999558 0.007027 -0.028888
vn 0.000000 1.000000 0.000001
vn 0.000000 1.000000 0.000001
vn 0.000000 1.000000 0.000000
vn 0.000000 1.000000 0.000001
vn 0.004698 -0.009934 -0.999940
vn 0.043496 -0.015215 -0.998938
vn 0.018306 -0.011788 -0.999763
vn 0.004698 -0.009934 -0.999940
vn 0.000000 1.000000 0.000000
vn 0.000000 1.000000 0.000002
vn 0.000000 1.000000 0.000003
vn 0.999520 -0.011230 -0.028887
vn 0.999520 -0.011230 -0.028887
vn 0.999456 -0.015942 -0.028885
vn 0.999457 -0.015858 -0.028885
vn 0.000000 1.000000 0.000000
vn 0.965288 0.261187 0.000000
vn 0.965288 0.261187 0.000000
vn 0.965288 0.261187 0.000000
vn 0.965288 0.261187 0.000000
vn -0.000001 1.000000 -0.000001
vn -0.000001 1.000000 -0.000001
vn 0.000000 1.000000 -0.000001
vn -0.000000 1.000000 -0.000001
vn -0.000001 1.000000 -0.000000
vn 0.000000 1.000000 0.000001
vn 0.000000 1.000000 0.000000
vn 0.000000 1.000000 0.000003
vn 0.000000 1.000000 0.000003
vn -0.999547 -0.008494 0.028887
vn -0.999556 0.007283 0.028888
vn -0.999558 0.007027 0.028888
vn -0.999547 -0.008494 0.028887
vn 0.004698 -0.009934 0.999940
vn 0.018306 -0.011788 0.999763
vn 0.043496 -0.015215 0.998938
vn 0.004698 -0.009934 0.999940
vn 0.000000 1.000000 -0.000001
vn 0.000000 1.000000 -0.000000
vn 0.000000 1.000000 -0.000000
vn 0.999457 -0.015858 0.028885
vn 0.999456 -0.015942 0.028885
vn 0.999520 -0.011230 0.028887
vn 0.999520 -0.011230 0.028887
vn 0.000000 1.000000 -0.000003
vn 0.000000 1.000000 -0.000003
vn 0.000000 1.000000 -0.000000
vn 0.965288 0.261187 -0.000000
vn 0.965288 0.261187 -0.000001
vn 0.965288 0.261187 -0.000001
vn 0.965288 0.261187 -0.000000
vn 0.000000 1.000000 0.000001
vn 0.965288 0.261187 0.000000
vn 0.965288 0.261187 0.000000
vn 0.000000 1.000000 0.000004
vn 0.965288 0.261187 0.000000
vn 0.965288 0.261187 0.000000
vn 0.965288 0.261187 0.000000
vn 0.965288 0.261187 0.000000
vn 0.000000 1.000000 0.000000
vn -0.931191 -0.110386 -0.347417
vn -0.931193 -0.110416 -0.347401
vn -0.933288 -0.140980 -0.330300
vn -0.933288 -0.140980 -0.330300
vn 0.999420 0.025776 -0.022257
vn 0.999233 0.024275 -0.030740
vn 0.999094 0.027389 -0.032559
vn 0.999382 0.028744 -0.020227
vn -0.412339 -0.107391 -0.904679
vn -0.418637 -0.118730 -0.900359
vn -0.430944 -0.141242 -0.891256
vn -0.430944 -0.141242 -0.891256
vn 0.999521 0.030955 -0.000000
vn 0.999521 0.030955 -0.000000
vn 0.999521 0.030955 -0.000000
vn 0.999521 0.030955 -0.000000
vn -0.931193 -0.110416 0.347401
vn -0.931191 -0.110386 0.347417
vn -0.933288 -0.140980 0.330300
vn -0.933288 -0.140980 0.330300
vn 0.999521 0.030955 -0.000000
vn 0.999521 0.030955 -0.000000
vn -0.418637 -0.118730 0.900359
vn -0.412339 -0.107392 0.904679
vn -0.430944 -0.141243 0.891256
vn -0.430944 -0.141243 0.891256
vn 0.999233 0.024275 0.030740
vn 0.999420 0.025776 0.022257
vn 0.999382 0.028744 0.020227
vn 0.999094 0.027389 0.032559
vn -0.999449 0.016351 0.028885
vn -0.999448 0.016439 0.028885
vn 0.053590 -0.020880 0.998345
vn 0.041490 -0.050775 0.997848
vn 0.999581 0.001990 0.028888
vn 0.999577 0.003231 0.028888
vn -0.390902 -0.065845 0.918074
vn -0.383583 -0.050693 0.922114
vn -0.934097 -0.061142 0.351745
vn -0.933288 -0.064229 0.353338
vn -0.933288 -0.064229 -0.353338
vn -0.934097 -0.061142 -0.351745
vn -0.390902 -0.065845 -0.918074
vn -0.383583 -0.050693 -0.922114
vn 0.999577 0.003231 -0.028888
vn 0.999581 0.001990 -0.028888
vn 0.041489 -0.050775 -0.997848
vn 0.053589 -0.020880 -0.998345
vn -0.999449 0.016351 -0.028885
vn -0.999448 0.016439 -0.028885
vn 0.592888 -0.063832 -0.802751
vn 0.605408 -0.051024 -0.794278
vn 0.947154 -0.064590 -0.314209
vn 0.947798 -0.056777 -0.313777
vn 0.947798 -0.056777 0.313776
vn 0.947154 -0.064590 0.314209
vn 0.605408 -0.051024 0.794278
vn 0.592888 -0.063832 0.802751
vn 0.040193 -0.053970 0.997733
vn 0.040193 -0.053970 0.997733
vn 0.040192 -0.053970 -0.997733
vn 0.040192 -0.053970 -0.997733
vn -0.999227 0.024964 -0.030366
vn -0.999269 0.023513 -0.030155
vn 0.540508 -0.113932 -0.833589
vn 0.555906 -0.099773 -0.825236
vn 0.943002 -0.118829 -0.310849
vn 0.942985 -0.119063 -0.310810
vn 0.942985 -0.119062 0.310810
vn 0.943002 -0.118829 0.310849
vn 0.555906 -0.099772 0.825236
vn 0.540508 -0.113932 0.833589
vn -0.999227 0.024964 0.030366
vn -0.999269 0.023513 0.030155
vn 0.522499 -0.130110 -0.842654
vn 0.522499 -0.130110 -0.842654
vn -0.998717 0.038923 -0.032398
vn -0.998717 0.038923 -0.032398
vn -0.999100 0.042417 0.000000
vn -0.999100 0.042417 0.000000
vn -0.999100 0.042417 0.000000
vn -0.999100 0.042417 0.000000
vn -0.998717 0.038923 0.032398
vn -0.998717 0.038923 0.032398
vn 0.522500 -0.130110 0.842654
vn 0.522500 -0.130110 0.842654
vn -0.999100 0.042417 0.000000
vn -0.999100 0.042417 0.000000
vn -0.999100 0.042417 0.000000
vn -0.999100 0.042417 0.000000
vn 0.940270 -0.150182 0.305512
vn 0.940270 -0.150182 0.305513
vn 0.940270 -0.150182 -0.305512
vn 0.940270 -0.150182 -0.305512
vn -0.999100 0.042417 0.000000
vn -0.999100 0.042417 0.000000
vn -0.999100 0.042417 0.000000
vn -0.999100 0.042417 0.000000
vn -0.999100 0.042417 0.000000
vn -0.999100 0.042417 0.000000
vn -0.999100 0.042417 0.000000
vn -0.999100 0.042417 0.000000
s 1
g pCylinder1
usemtl initialShadingGroup
f 9/20/1 10/26/2 58/27/3 59/21/4
s 2
f 23/1/5 25/2/6 52/3/7 53/4/8
s 3
f 13/24/9 14/16/10 61/19/11 48/25/12
s 4
f 14/16/13 17/17/14 60/18/15 61/19/16
s 5
f 17/17/17 9/20/18 59/21/19 60/18/20
s 6
f 52/3/21 25/2/22 27/43/23 51/44/24
s 7
f 54/7/25 55/52/26 19/53/27 20/8/28
s 8
f 53/4/29 54/7/30 20/8/31 23/1/32
s 9
f 35/61/33 36/62/34 37/63/35 38/64/36
s 10
f 58/74/37 10/75/38 1/76/39 57/77/40
s 11
f 77/100/41 76/101/42 78/102/43 79/103/44
s 12
f 2/113/45 56/114/46 57/115/47 1/116/48
s 11
f 80/104/49 76/101/42 77/100/41
s 9
f 35/61/33 38/64/36 39/69/50 40/70/51
s 13
f 2/121/52 19/122/53 55/123/54 56/124/55
s 9
f 38/64/36 41/67/56 39/69/50
s off
f 31/133/57 5/134/58 6/128/59 32/131/60
s 9
f 41/67/61 38/64/36 37/63/35 42/68/62
f 36/62/34 43/65/63 44/66/64 37/63/35
f 42/68/62 37/63/35 44/66/64 45/73/65
s 11
f 82/109/66 81/108/67 83/111/68 84/112/69
s 15
f 13/98/70 48/96/71 49/97/72 4/99/73
s 16
f 4/45/74 49/42/75 50/41/76 3/59/77
s 11
f 85/110/78 81/108/67 86/105/79 87/107/80
s 13
f 50/149/81 51/148/82 27/50/83 3/47/84
s 9
f 46/71/85 44/66/64 43/65/63 47/72/86
s 11
f 81/108/67 82/109/66 88/106/87 86/105/79
f 86/105/79 88/106/87 78/102/43 76/101/42
s 18
f 30/137/88 31/133/89 32/131/90 29/135/91
s 11
f 87/107/80 86/105/79 76/101/42 80/104/92
s 18
f 34/138/93 33/140/94 30/137/88 29/135/91
s 9
f 45/73/95 44/66/64 46/71/85
s off
f 34/138/96 7/141/97 8/143/98 33/140/99
s 11
f 81/108/67 85/110/100 83/111/68
s 8
f 21/14/101 24/10/102 36/13/103 35/15/104
s 13
f 6/128/105 22/127/106 40/129/107 39/130/108
s 7
f 22/58/109 21/14/110 35/15/111 40/60/112
s 13
f 32/131/113 6/128/105 39/130/108 41/132/114
f 29/135/115 32/131/113 41/132/114 42/136/116
s 2
f 24/10/117 26/9/118 43/12/119 36/13/120
s 13
f 34/138/121 29/135/115 42/136/116 45/139/122
s 6
f 26/9/123 28/48/124 47/49/125 43/12/126
s 13
f 28/144/127 7/141/128 46/142/129 47/145/130
f 7/141/128 34/138/121 45/139/122 46/142/129
s 15
f 48/96/71 75/95/131 62/94/132 49/97/72
s 16
f 50/41/76 49/42/75 62/57/133 63/55/134
s 13
f 63/147/135 64/146/136 51/148/82 50/149/81
s 6
f 65/5/137 52/3/21 51/44/24 64/46/138
s 2
f 53/4/8 52/3/7 65/5/139 66/6/140
s 8
f 66/6/141 67/11/142 54/7/30 53/4/29
s 7
f 67/11/143 68/56/144 55/52/26 54/7/25
s 13
f 56/124/55 55/123/54 68/125/145 69/126/146
s 12
f 57/115/47 56/114/46 69/117/147 70/118/148
s 10
f 71/78/149 58/74/37 57/77/40 70/79/150
s 1
f 59/21/4 58/27/3 71/32/151 72/28/152
s 5
f 60/18/20 59/21/19 72/28/153 73/22/154
s 4
f 61/19/16 60/18/15 73/22/155 74/23/156
s 3
f 48/25/12 61/19/11 74/23/157 75/31/158
s 16
f 63/55/134 62/57/133 8/54/159 7/51/160
s 13
f 7/141/128 28/144/127 64/146/136 63/147/135
s 6
f 26/9/123 65/5/137 64/46/138 28/48/124
s 2
f 66/6/140 65/5/139 26/9/118 24/10/117
s 8
f 24/10/102 21/14/101 67/11/142 66/6/141
s 7
f 21/14/110 22/58/109 68/56/144 67/11/143
s 13
f 69/126/146 68/125/145 22/127/106 6/128/105
s 12
f 70/118/148 69/117/147 6/119/161 5/120/162
s 10
f 11/80/163 71/78/149 70/79/150 5/81/164
s 1
f 72/28/152 71/32/151 11/37/165 12/33/166
s 5
f 73/22/154 72/28/153 12/33/167 18/29/168
s 4
f 74/23/156 73/22/155 18/29/169 15/30/170
s 3
f 75/31/158 74/23/157 15/30/171 16/36/172
s 15
f 62/94/132 75/95/131 16/92/173 8/90/174
s 1
f 12/33/166 11/37/165 79/40/175 78/38/176
s 10
f 11/80/163 5/81/164 77/82/177 79/83/178
s off
f 5/81/179 31/84/180 80/85/181 77/82/182
s 15
f 8/90/174 16/92/173 84/93/183 83/91/184
s 3
f 16/36/172 15/30/171 82/35/185 84/39/186
s off
f 30/86/187 33/88/188 85/89/189 87/87/190
s 4
f 15/30/170 18/29/169 88/34/191 82/35/192
s 5
f 18/29/168 12/33/167 78/38/193 88/34/194
s off
f 31/84/195 30/86/196 87/87/197 80/85/198
f 33/88/199 8/90/200 83/91/201 85/89/202
