# This file uses centimeters as units for non-parametric coordinates.

mtllib lv3_4.mtl
g default
v 1.172401 -0.430128 -0.863624
v 0.132785 -0.430128 -1.471887
v -0.728020 -0.430128 -1.238505
v -1.356826 -0.430128 -0.611706
v -1.356826 -0.430128 0.611706
v -0.728020 -0.430128 1.238505
v 0.135540 -0.430128 1.469828
v 1.169700 -0.430128 0.865606
v 1.417133 -0.430128 0.000000
v 1.587757 8.536474 -1.169958
v 0.180225 8.536474 -1.993484
v -0.921704 8.540281 -1.569101
v -1.835424 8.536474 -0.828187
v -1.835424 8.536474 0.828187
v -0.921703 8.539578 1.569088
v 0.184273 8.536474 1.990495
v 1.584420 8.536474 1.172440
v 1.795748 8.539444 0.000000
v 1.356312 12.063033 -0.998106
v 0.155030 12.063033 -1.700958
v -0.839339 12.063033 -1.431100
v -1.565928 12.063033 -0.706830
v -1.565928 12.063033 0.706829
v -0.782851 12.052537 1.333339
v 0.158348 12.063033 1.698494
v 1.353326 12.063033 1.000311
v 1.526477 12.052794 0.000000
v 0.552244 16.924828 -0.939798
v -0.455802 16.924828 -0.805479
v -1.073826 16.924828 -0.000000
v -0.455803 16.924828 0.805479
v 0.551992 16.924828 0.939950
v 0.934133 16.924828 0.000000
v 0.010771 16.924828 0.000000
v 0.160343 3.533374 -1.801441
v 1.432265 3.533374 -1.057259
v 1.681713 3.534591 0.000000
v 1.429171 3.533374 1.059550
v 0.163924 3.533374 1.798788
v -0.866183 3.534647 1.471097
v -1.661070 3.533374 0.748395
v -1.661070 3.533374 -0.748395
v -0.866183 3.534934 -1.471102
v 0.780251 -0.430127 -0.763329
v 0.166308 -0.430127 -1.120835
v 0.218140 2.966869 -1.399150
v 1.009164 2.966869 -0.938528
v 1.098856 8.496430 -1.008169
v 0.230087 8.496430 -1.514063
v 0.199193 11.662337 -1.246227
v 0.904920 11.662337 -0.835274
v 0.517623 14.341090 -0.882815
v -1.140317 -0.430128 -0.350165
v -1.140317 -0.430128 0.350165
v -1.395028 2.966869 0.451163
v -1.395028 2.966869 -0.451163
v -1.502301 8.496430 -0.495505
v -1.502301 8.496430 0.495505
v -1.240971 11.662350 0.402513
v -1.240971 11.662350 -0.402514
v -1.027169 14.341113 -0.000000
v 0.162037 -0.430127 1.123368
v 0.783715 -0.430127 0.761274
v 1.013800 2.966869 0.935778
v 0.212810 2.966869 1.402312
v 0.224231 8.496430 1.517537
v 1.103946 8.496430 1.005150
v 0.909152 11.662337 0.832764
v 0.194535 11.662337 1.248990
v 0.517964 14.341091 0.882613
v -0.081042 13.965095 -1.324125
v -0.800088 13.346058 -1.280317
v -0.510198 15.719985 -0.903755
v 0.005021 15.018482 -1.159207
v -1.110478 13.965528 -0.729278
v -1.003856 15.018916 -0.576132
v -1.099235 13.967170 0.709558
v -0.771579 13.345058 1.239282
v -0.499011 15.721366 0.883902
v -0.992613 15.020557 0.556412
v -0.068276 13.966329 1.303606
v 0.017014 15.019718 1.139255
v 1.148046 13.965142 0.597338
v 1.361169 13.343440 0.004242
v 1.026036 15.720011 -0.000174
v 0.974424 15.018532 0.584260
v 1.149268 13.965532 -0.596409
v 0.975053 15.018923 -0.583776
v -0.144187 14.051575 -1.375679
v -0.812632 13.516296 -1.311027
v -0.561393 15.573700 -0.984674
v -0.069599 14.964511 -1.232751
v -1.126908 14.054389 -0.806776
v -1.034502 14.967322 -0.674048
v -1.113783 14.055474 0.787558
v -0.785809 13.515173 1.272474
v -0.549583 15.574638 0.964478
v -1.021377 14.968413 0.654831
v -0.132274 14.052463 1.354043
v -0.058356 14.965401 1.211605
v 1.222647 14.050580 0.564955
v 1.407412 13.511703 0.003966
v 1.116964 15.571399 0.000139
v 1.072175 14.963518 0.553620
v 1.223824 14.050782 -0.563571
v 1.072838 14.963720 -0.552622
vt 0.584087 0.011263
vt 0.622642 0.008426
vt 0.059377 0.187609
vt 0.598173 0.192333
vt 0.145290 0.014939
vt 0.129157 0.224368
vt 0.075084 0.219993
vt 0.193732 0.018468
vt 0.183547 0.227823
vt 0.213191 0.017340
vt 0.253976 0.017389
vt 0.251452 0.199717
vt 0.204261 0.198650
vt 0.273821 0.018860
vt 0.324277 0.017389
vt 0.324625 0.229983
vt 0.270005 0.229981
vt 0.376155 0.018538
vt 0.379296 0.230069
vt 0.396830 0.016728
vt 0.438870 0.016619
vt 0.445747 0.199366
vt 0.397839 0.199758
vt 0.462093 0.017976
vt 0.512617 0.016130
vt 0.523689 0.227129
vt 0.467638 0.229152
vt 0.561960 0.014473
vt 0.579499 0.224351
vt 0.624294 0.471153
vt 0.678067 0.468317
vt 0.021108 0.647881
vt 0.622375 0.648959
vt 0.049472 0.469945
vt 0.110175 0.472339
vt 0.112827 0.659758
vt 0.169083 0.472900
vt 0.169691 0.656479
vt 0.192629 0.471522
vt 0.241927 0.471872
vt 0.242579 0.633122
vt 0.194909 0.634681
vt 0.265122 0.473537
vt 0.322571 0.473966
vt 0.322649 0.653712
vt 0.269188 0.652971
vt 0.380006 0.474146
vt 0.376224 0.653056
vt 0.403081 0.472668
vt 0.452772 0.472596
vt 0.450641 0.634935
vt 0.402738 0.632802
vt 0.477721 0.474112
vt 0.536633 0.474000
vt 0.532714 0.660285
vt 0.477149 0.657135
vt 0.597310 0.473321
vt 0.590126 0.666137
vt 0.605198 0.819246
vt 0.096432 0.789134
vt 0.128491 0.750138
vt 0.146797 0.881324
vt 0.103296 0.845885
vt 0.166947 0.781933
vt 0.178779 0.837239
vt 0.229851 0.799643
vt 0.288288 0.776760
vt 0.321222 0.741717
vt 0.324844 0.873154
vt 0.284906 0.833041
vt 0.359009 0.776626
vt 0.363332 0.832531
vt 0.419155 0.798994
vt 0.481061 0.782268
vt 0.520171 0.751869
vt 0.501589 0.880147
vt 0.469888 0.836892
vt 0.549804 0.788693
vt 0.544110 0.844526
vt 0.563488 0.974766
vt 0.161714 0.971518
vt 0.697033 0.900921
vt 0.240807 0.957242
vt 0.325250 0.962215
vt 0.409815 0.955667
vt 0.489068 0.967792
vt 0.127071 0.738178
vt 0.090076 0.784568
vt 0.148745 0.894346
vt 0.171793 0.776043
vt 0.186355 0.842007
vt 0.320857 0.729392
vt 0.282996 0.771694
vt 0.277800 0.838210
vt 0.325110 0.886231
vt 0.364344 0.771481
vt 0.370580 0.837850
vt 0.521784 0.739151
vt 0.476264 0.776438
vt 0.462215 0.841657
vt 0.499760 0.893049
vt 0.555890 0.784089
vt 0.549648 0.850910
vt 0.097142 0.013774
vt 0.078546 0.010944
vt 0.671168 0.653536
vt 0.038721 0.823261
vt 0.085753 0.980398
vt 0.609194 0.903281
vt 0.024073 0.467110
vt 0.645494 0.187899
vt 0.738820 0.823619
vt 0.052982 0.665321
vt 0.097771 0.852830
vt 0.742930 0.975855
vt 0.771814 0.898912
vt 0.660999 0.967170
vt 0.657494 0.836702
vn 0.501670 -0.078238 -0.861514
vn 0.501670 -0.078238 -0.861514
vn 0.502829 -0.039037 -0.863504
vn 0.502829 -0.039008 -0.863505
vn -0.285511 -0.071743 -0.955687
vn -0.498848 -0.073878 -0.863535
vn -0.499930 -0.047070 -0.864786
vn -0.314738 -0.045914 -0.948067
vn -0.686118 -0.072002 -0.723919
vn -0.665022 -0.045966 -0.745408
vn -0.997201 -0.074771 -0.000000
vn -0.997201 -0.074771 -0.000000
vn -0.999274 -0.038087 -0.000000
vn -0.999274 -0.038087 -0.000000
vn -0.686123 -0.072005 0.723913
vn -0.497198 -0.073867 0.864487
vn -0.498260 -0.047067 0.865749
vn -0.665024 -0.045964 0.745406
vn -0.282440 -0.071666 0.956604
vn -0.311541 -0.045866 0.949125
vn 0.501756 -0.078238 0.861464
vn 0.501756 -0.078238 0.861464
vn 0.502916 -0.039004 0.863455
vn 0.502915 -0.039033 0.863454
vn 0.965531 -0.069954 0.250711
vn 0.997385 -0.072252 0.001515
vn 0.998914 -0.046578 0.001464
vn 0.973879 -0.045274 0.222509
vn 0.966101 -0.069976 -0.248502
vn 0.974393 -0.045285 -0.220246
vn 0.503157 0.014864 -0.864067
vn 0.503157 0.014753 -0.864069
vn 0.501881 0.072700 -0.861876
vn 0.501885 0.072581 -0.861884
vn -0.326202 0.007455 -0.945271
vn -0.500451 0.008046 -0.865728
vn -0.497134 0.084306 -0.863568
vn -0.290441 0.083910 -0.953207
vn -0.656878 0.007534 -0.753959
vn -0.683996 0.082099 -0.724852
vn -0.999869 0.016161 0.000000
vn -0.999869 0.016161 0.000000
vn -0.996666 0.081584 0.000000
vn -0.996666 0.081584 0.000000
vn -0.641205 0.013425 0.767252
vn -0.498724 0.013954 0.866649
vn -0.495725 0.089445 0.863861
vn -0.640948 0.089068 0.762399
vn -0.342195 0.013367 0.939534
vn -0.340174 0.089949 0.936051
vn 0.503244 0.014748 0.864018
vn 0.503243 0.014861 0.864017
vn 0.501971 0.072586 0.861833
vn 0.501967 0.072707 0.861825
vn 0.981386 0.012643 0.191629
vn 0.999912 0.013209 0.001442
vn 0.995827 0.091256 0.001331
vn 0.979773 0.090649 0.178402
vn 0.981841 0.012644 -0.189284
vn 0.980219 0.090870 -0.175822
vn 0.502385 0.057324 -0.862742
vn -0.245561 0.177499 -0.952992
vn -0.488039 0.189133 -0.852084
vn -0.486104 0.189088 -0.853199
vn -0.245561 0.177499 -0.952992
vn -0.714244 0.186878 -0.674487
vn -0.714244 0.186878 -0.674487
vn -0.996830 0.079561 0.000000
vn -0.700724 0.179838 0.690394
vn -0.488302 0.181349 0.853624
vn -0.486758 0.181315 0.854513
vn -0.700725 0.179838 0.690394
vn -0.261943 0.171257 0.949767
vn -0.261943 0.171257 0.949767
vn 0.502471 0.057324 0.862692
vn 0.967347 0.144545 0.208200
vn 0.989050 0.147582 0.000603
vn 0.989050 0.147581 0.000430
vn 0.967347 0.144545 0.208200
vn 0.967953 0.144233 -0.205580
vn 0.967953 0.144233 -0.205580
vn 0.000000 1.000000 -0.000001
vn 0.000000 1.000000 -0.000002
vn 0.000000 1.000000 -0.000000
vn 0.000000 1.000000 0.000001
vn 0.000000 1.000000 0.000002
vn 0.000000 1.000000 0.000001
vn 0.000000 1.000000 -0.000000
vn 0.990387 -0.021961 -0.136570
vn 0.991882 -0.008316 -0.126890
vn 0.990901 -0.017552 -0.133446
vn 0.990387 -0.021961 -0.136570
vn -0.281939 -0.012671 -0.959349
vn -0.237975 -0.032840 -0.970716
vn -0.237975 -0.032840 -0.970716
vn -0.252830 -0.026064 -0.967160
vn 0.993779 0.003250 -0.111322
vn 0.970683 -0.029842 -0.238504
vn 0.986758 -0.005648 -0.162104
vn 0.993651 0.002451 -0.112484
vn -0.260645 -0.016401 -0.965295
vn -0.309392 0.005965 -0.950916
vn -0.307744 0.004740 -0.951457
vn -0.301737 0.006641 -0.953368
vn 0.955173 -0.047061 -0.292285
vn 0.955173 -0.047061 -0.292285
vn -0.227722 -0.034589 -0.973112
vn -0.227722 -0.034589 -0.973112
vn -0.775264 -0.038514 -0.630462
vn -0.735051 -0.014364 -0.677860
vn -0.762755 -0.030795 -0.645954
vn -0.775264 -0.038514 -0.630462
vn -0.735050 -0.014364 0.677860
vn -0.775264 -0.038514 0.630462
vn -0.775264 -0.038514 0.630462
vn -0.762755 -0.030795 0.645954
vn -0.710671 0.007004 -0.703490
vn -0.734776 -0.011061 -0.678219
vn -0.708726 0.011173 -0.705395
vn -0.712346 0.005434 -0.701808
vn -0.734777 -0.011061 0.678219
vn -0.710671 0.007004 0.703490
vn -0.712346 0.005434 0.701808
vn -0.708726 0.011174 0.705395
vn -0.752039 -0.026488 -0.658587
vn -0.752039 -0.026488 -0.658587
vn -0.752039 -0.026488 0.658586
vn -0.752039 -0.026488 0.658586
vn -0.252917 -0.031582 0.966972
vn -0.297225 -0.012086 0.954731
vn -0.267731 -0.025103 0.963167
vn -0.252917 -0.031582 0.966972
vn 0.994235 -0.007592 0.106957
vn 0.993017 -0.020278 0.116220
vn 0.993017 -0.020278 0.116220
vn 0.993432 -0.016235 0.113271
vn -0.324017 0.005740 0.946034
vn -0.269006 -0.017695 0.962976
vn -0.313209 0.005514 0.949668
vn -0.322396 0.004553 0.946594
vn 0.972456 -0.031254 0.230983
vn 0.995705 0.002946 0.092541
vn 0.995604 0.002205 0.093635
vn 0.988817 -0.006972 0.148970
vn -0.234192 -0.035683 0.971535
vn -0.234192 -0.035683 0.971535
vn 0.956622 -0.048106 0.287333
vn 0.956622 -0.048106 0.287333
vn -0.501958 0.149596 -0.851857
vn -0.205022 0.160842 -0.965451
vn -0.495438 0.144002 -0.856624
vn -0.187659 0.139327 -0.972302
vn -0.192985 0.159150 -0.968209
vn -0.494041 0.143999 -0.857431
vn -0.738509 0.161869 -0.654524
vn -0.747235 0.140921 -0.649447
vn -0.742322 0.161135 -0.650380
vn -0.499772 0.126973 0.856800
vn -0.698025 0.158576 0.698294
vn -0.496268 0.130527 0.858301
vn -0.740950 0.130118 0.658834
vn -0.714933 0.159360 0.680790
vn -0.494973 0.130523 0.859049
vn -0.260144 0.156157 0.952859
vn -0.198887 0.128304 0.971587
vn -0.232053 0.157084 0.959936
vn 0.990381 0.138353 0.001809
vn 0.956901 0.153340 0.246633
vn 0.992128 0.125229 0.000313
vn 0.940752 0.123418 0.315837
vn 0.947103 0.149182 0.284149
vn 0.992128 0.125229 0.000226
vn 0.957325 0.153781 -0.244705
vn 0.940847 0.123615 -0.315477
vn 0.947321 0.149559 -0.283222
vn 0.144336 -0.263123 -0.953904
vn 0.144336 -0.263123 -0.953905
vn 0.144336 -0.263123 -0.953905
vn 0.144336 -0.263123 -0.953904
vn 0.231538 0.498764 -0.835239
vn 0.231538 0.498764 -0.835239
vn 0.231538 0.498764 -0.835239
vn 0.231538 0.498764 -0.835239
vn 0.678691 0.059158 -0.732038
vn 0.678691 0.059158 -0.732038
vn 0.678691 0.059158 -0.732038
vn 0.678691 0.059158 -0.732038
vn -0.926794 -0.228207 -0.298285
vn -0.926794 -0.228207 -0.298285
vn -0.926794 -0.228207 -0.298285
vn -0.926794 -0.228207 -0.298285
vn -0.961046 0.057987 0.270236
vn -0.961046 0.057987 0.270236
vn -0.961046 0.057987 0.270236
vn -0.961046 0.057987 0.270236
vn -0.831712 0.519950 -0.194697
vn -0.831712 0.519950 -0.194697
vn -0.831712 0.519950 -0.194697
vn -0.831712 0.519950 -0.194697
vn -0.917204 -0.239227 0.318602
vn -0.917204 -0.239227 0.318602
vn -0.917204 -0.239227 0.318602
vn -0.917204 -0.239227 0.318602
vn -0.832340 0.515450 0.203769
vn -0.832340 0.515450 0.203769
vn -0.832340 0.515449 0.203769
vn -0.832340 0.515450 0.203769
vn -0.966332 0.061487 -0.249842
vn -0.966332 0.061487 -0.249842
vn -0.966332 0.061487 -0.249842
vn -0.966332 0.061487 -0.249842
vn 0.129463 -0.271706 0.953633
vn 0.129463 -0.271706 0.953633
vn 0.129463 -0.271706 0.953633
vn 0.129463 -0.271706 0.953633
vn 0.667698 0.061686 0.741872
vn 0.667698 0.061686 0.741872
vn 0.667698 0.061686 0.741872
vn 0.667698 0.061686 0.741872
vn 0.226813 0.495642 0.838388
vn 0.226813 0.495642 0.838388
vn 0.226813 0.495642 0.838388
vn 0.226813 0.495642 0.838388
vn 0.771928 -0.295213 0.563006
vn 0.771928 -0.295213 0.563006
vn 0.771928 -0.295213 0.563006
vn 0.771928 -0.295213 0.563006
vn 0.623274 0.486319 0.612392
vn 0.623274 0.486319 0.612392
vn 0.623274 0.486319 0.612392
vn 0.623274 0.486319 0.612392
vn 0.332294 0.066450 0.940832
vn 0.332294 0.066450 0.940832
vn 0.332294 0.066450 0.940832
vn 0.332294 0.066450 0.940832
vn 0.774709 -0.297482 -0.557970
vn 0.774709 -0.297482 -0.557970
vn 0.774709 -0.297482 -0.557970
vn 0.774709 -0.297482 -0.557970
vn 0.337024 0.067001 -0.939109
vn 0.337024 0.067001 -0.939109
vn 0.337024 0.067001 -0.939109
vn 0.337024 0.067001 -0.939109
vn 0.625696 0.485007 -0.610961
vn 0.625696 0.485007 -0.610961
vn 0.625696 0.485007 -0.610961
vn 0.625696 0.485007 -0.610961
s 1
g pCylinder1
usemtl initialShadingGroup
f 44/1/1 45/2/2 46/111/3 47/4/4
s 2
f 2/104/5 3/5/6 43/6/7 35/7/8
f 3/5/6 4/8/9 42/9/10 43/6/7
s 3
f 53/10/11 54/11/12 55/12/13 56/13/14
s 4
f 5/14/15 6/15/16 40/16/17 41/17/18
f 6/15/16 7/18/19 39/19/20 40/16/17
s 5
f 62/20/21 63/21/22 64/22/23 65/23/24
s 6
f 8/24/25 9/25/26 37/26/27 38/27/28
f 9/25/26 1/28/29 36/29/30 37/26/27
s 1
f 48/30/31 49/31/32 50/106/33 51/33/34
s 2
f 11/34/35 12/35/36 21/36/37 20/113/38
f 12/35/36 13/37/39 22/38/40 21/36/37
s 3
f 57/39/41 58/40/42 59/41/43 60/42/44
s 4
f 14/43/45 15/44/46 24/45/47 23/46/48
f 15/44/46 16/47/49 25/48/50 24/45/47
s 5
f 66/49/51 67/50/52 68/51/53 69/52/54
s 6
f 17/53/55 18/54/56 27/55/57 26/56/58
f 18/54/56 10/57/59 19/58/60 27/55/57
s 1
f 51/33/34 50/106/33 52/59/61
s 7
f 89/60/62 90/61/63 91/62/64 92/63/65
f 90/61/63 93/64/66 94/65/67 91/62/64
s 3
f 60/42/44 59/41/43 61/66/68
s 8
f 95/67/69 96/68/70 97/69/71 98/70/72
f 96/68/70 99/71/73 100/72/74 97/69/71
s 5
f 69/52/54 68/51/53 70/73/75
s 9
f 101/74/76 102/75/77 103/76/78 104/77/79
f 102/75/77 105/78/80 106/79/81 103/76/78
s 10
f 28/115/82 29/117/83 34/82/84
f 29/117/83 30/109/85 34/82/84
f 30/109/85 31/118/86 34/82/84
f 31/118/86 32/112/87 34/82/84
f 32/112/87 33/116/88 34/82/84
f 33/116/88 28/115/82 34/82/84
s 1
f 47/4/4 46/111/3 49/31/32 48/30/31
s 6
f 37/26/27 36/29/30 10/57/59 18/54/56
f 38/27/28 37/26/27 18/54/56 17/53/55
s 5
f 65/23/24 64/22/23 67/50/52 66/49/51
s 4
f 40/16/17 39/19/20 16/47/49 15/44/46
f 41/17/18 40/16/17 15/44/46 14/43/45
s 3
f 56/13/14 55/12/13 58/40/42 57/39/41
s 2
f 43/6/7 42/9/10 13/37/39 12/35/36
f 35/7/8 43/6/7 12/35/36 11/34/35
s 11
f 2/104/89 35/7/90 46/3/91 45/105/92
s 12
f 36/29/93 1/28/94 44/1/95 47/4/96
s 11
f 11/34/97 20/113/98 50/32/99 49/110/100
s 12
f 19/58/101 10/57/102 48/30/103 51/33/104
s 11
f 20/113/98 28/108/105 52/107/106 50/32/99
s 12
f 28/80/107 19/58/101 51/33/104 52/59/108
s 11
f 35/7/90 11/34/97 49/110/100 46/3/91
s 12
f 10/57/102 36/29/93 47/4/96 48/30/103
s 14
f 5/14/109 41/17/110 55/12/111 54/11/112
s 15
f 42/9/113 4/8/114 53/10/115 56/13/116
s 14
f 14/43/117 23/46/118 59/41/119 58/40/120
s 15
f 22/38/121 13/37/122 57/39/123 60/42/124
s 14
f 23/46/118 30/83/125 61/66/126 59/41/119
s 15
f 30/83/127 22/38/121 60/42/124 61/66/128
s 14
f 41/17/110 14/43/117 58/40/120 55/12/111
s 15
f 13/37/122 42/9/113 56/13/116 57/39/123
s 17
f 8/24/129 38/27/130 64/22/131 63/21/132
s 18
f 39/19/133 7/18/134 62/20/135 65/23/136
s 17
f 17/53/137 26/56/138 68/51/139 67/50/140
s 18
f 25/48/141 16/47/142 66/49/143 69/52/144
s 17
f 26/56/138 32/85/145 70/73/146 68/51/139
s 18
f 32/85/147 25/48/141 69/52/144 70/73/148
s 17
f 38/27/130 17/53/137 67/50/140 64/22/131
s 18
f 16/47/142 39/19/133 65/23/136 66/49/143
s 2
f 20/113/38 21/36/37 72/87/149 71/88/150
f 29/81/151 28/108/152 74/114/153 73/89/154
f 28/108/152 20/113/38 71/88/150 74/114/153
f 21/36/37 22/38/40 75/90/155 72/87/149
f 22/38/40 30/83/156 76/91/157 75/90/155
f 30/83/156 29/81/151 73/89/154 76/91/157
s 4
f 23/46/48 24/45/47 78/92/158 77/93/159
f 31/84/160 30/83/161 80/94/162 79/95/163
f 30/83/161 23/46/48 77/93/159 80/94/162
f 24/45/47 25/48/50 81/96/164 78/92/158
f 25/48/50 32/85/165 82/97/166 81/96/164
f 32/85/165 31/84/160 79/95/163 82/97/166
s 6
f 26/56/58 27/55/57 84/98/167 83/99/168
f 33/86/169 32/85/170 86/100/171 85/101/172
f 32/85/170 26/56/58 83/99/168 86/100/171
f 27/55/57 19/58/60 87/102/173 84/98/167
f 19/58/60 28/80/174 88/103/175 87/102/173
f 28/80/174 33/86/169 85/101/172 88/103/175
s off
f 71/88/176 72/87/177 90/61/178 89/60/179
f 73/89/180 74/114/181 92/63/182 91/62/183
f 74/114/184 71/88/185 89/60/186 92/63/187
f 72/87/188 75/90/189 93/64/190 90/61/191
f 75/90/192 76/91/193 94/65/194 93/64/195
f 76/91/196 73/89/197 91/62/198 94/65/199
f 77/93/200 78/92/201 96/68/202 95/67/203
f 79/95/204 80/94/205 98/70/206 97/69/207
f 80/94/208 77/93/209 95/67/210 98/70/211
f 78/92/212 81/96/213 99/71/214 96/68/215
f 81/96/216 82/97/217 100/72/218 99/71/219
f 82/97/220 79/95/221 97/69/222 100/72/223
f 83/99/224 84/98/225 102/75/226 101/74/227
f 85/101/228 86/100/229 104/77/230 103/76/231
f 86/100/232 83/99/233 101/74/234 104/77/235
f 84/98/236 87/102/237 105/78/238 102/75/239
f 87/102/240 88/103/241 106/79/242 105/78/243
f 88/103/244 85/101/245 103/76/246 106/79/247
